<svg width="32" height="26" viewBox="0 0 32 26" fill="none" xmlns="http://www.w3.org/2000/svg">
<path d="M2.46075 20.0052C3.04754 20.0529 3.46406 20.0125 3.73964 19.89C3.93903 19.82 4.1266 19.6915 4.31995 19.4986C4.44884 19.37 4.58357 19.2122 4.71824 19.0192C4.71824 19.0192 6.96753 16.3767 6.97339 16.3708C7.05542 16.289 7.14919 16.2189 7.24299 16.1605C7.43643 16.0378 7.65927 15.9562 7.86456 15.9155C8.08161 15.8866 8.18722 15.8867 8.28698 15.8927C8.35738 15.8928 12.8633 15.8406 12.8633 15.8406L7.59084 25.7076L10.4068 25.4657C10.4068 25.4657 11.0226 25.3437 11.1692 25.2912C11.785 25.0872 12.4064 24.7369 13.0159 24.246C13.2738 24.0357 13.5316 23.8019 13.8363 23.5097L21.0484 16.0803L25.5896 16.0749C25.9182 16.0754 26.2585 16.0759 26.4755 16.0586C26.7337 16.0473 27.0094 16.0067 27.2733 15.9544C27.813 15.8498 28.3584 15.6925 28.8861 15.4474C29.6894 15.0915 30.4045 14.6125 30.9612 14.0689C31.2775 13.7533 31.453 13.3321 31.4465 12.8814C31.4458 12.4365 31.2751 12.009 30.9461 11.6808C30.3996 11.1357 29.6832 10.6547 28.8789 10.2965C28.0804 9.9325 27.247 9.72062 26.4725 9.68442C26.2319 9.66652 25.9033 9.66606 25.5747 9.6656L21.0335 9.64754L13.7887 2.18621C13.6595 2.05726 13.1249 1.57069 12.9781 1.45928C12.3672 0.966749 11.7448 0.614682 11.1519 0.420695C11.011 0.373672 10.653 0.285373 10.6236 0.279479L7.49603 0L12.8491 9.87608C12.8491 9.87608 8.34296 9.81124 8.27256 9.81114C8.16695 9.81099 8.07308 9.81087 7.87356 9.78718C7.65055 9.75174 7.42161 9.66362 7.22782 9.54043C7.12798 9.47591 7.03401 9.40553 6.94 9.31175C6.91062 9.28244 4.67152 6.6512 4.67152 6.6512C4.33644 6.18833 4.03685 5.92451 3.74334 5.81874C3.42631 5.67782 3.00382 5.64211 2.44649 5.6823L0 5.77839L2.8438 12.8472L0.0198588 19.9082L2.43729 20.0052L2.46075 20.0052Z" fill="#082567"/>
</svg>
