<svg width="165" height="165" viewBox="0 0 165 165" fill="none" xmlns="http://www.w3.org/2000/svg">
<g clip-path="url(#clip0_942_46090)">
<g clip-path="url(#clip1_942_46090)">
<circle cx="83" cy="80" r="72" fill="white"/>
<path d="M159 77.5C159 120.302 124.302 155 81.5 155C38.6979 155 4 120.302 4 77.5C4 34.6979 38.6979 0 81.5 0C124.302 0 159 34.6979 159 77.5ZM15.625 77.5C15.625 113.882 45.1182 143.375 81.5 143.375C117.882 143.375 147.375 113.882 147.375 77.5C147.375 41.1182 117.882 11.625 81.5 11.625C45.1182 11.625 15.625 41.1182 15.625 77.5Z" fill="#F7F7F7"/>
<g filter="url(#filter0_d_942_46090)">
<path d="M136.326 27.6741C138.669 25.3309 138.683 21.5125 136.171 19.3515C122.439 7.5383 105.048 0.694206 86.8268 0.0499592C66.6002 -0.665203 46.8543 6.31266 31.568 19.5775C16.2816 32.8423 6.59118 51.408 4.44926 71.5336C2.30734 91.6592 7.87318 111.849 20.0252 128.034C32.1773 144.219 50.0123 155.196 69.9363 158.754C89.8604 162.312 110.392 158.186 127.395 147.207C144.398 136.229 156.608 119.214 161.564 99.5907C166.029 81.9135 164.309 63.3037 156.796 46.8212C155.421 43.806 151.751 42.7538 148.847 44.3502C145.943 45.9466 144.91 49.5863 146.244 52.6195C152.317 66.4247 153.651 81.9194 149.93 96.6521C145.717 113.332 135.338 127.795 120.886 137.126C106.434 146.458 88.9813 149.965 72.0459 146.941C55.1104 143.917 39.9507 134.586 29.6215 120.829C19.2922 107.071 14.5612 89.9103 16.3819 72.8036C18.2025 55.6968 26.4394 39.9159 39.4328 28.6408C52.4262 17.3658 69.2102 11.4346 86.4028 12.0425C101.589 12.5794 116.096 18.1827 127.659 27.8663C130.199 29.9939 133.983 30.0172 136.326 27.6741Z" fill="#02C27F"/>
</g>
</g>
<path d="M61.9723 61L68.5323 46.72H70.0923L75.1923 57.8C75.6057 58.6933 75.9523 59.3933 76.2323 59.9C76.5257 60.4067 76.759 60.7733 76.9323 61H75.2323C74.699 61 74.239 60.88 73.8523 60.64C73.479 60.3867 73.139 59.9133 72.8323 59.22L72.3523 58.1H65.9123L64.6523 61H61.9723ZM66.8523 55.94H71.4123L69.1323 50.68L66.8523 55.94ZM83.4477 61.24C82.6743 61.24 81.921 61.16 81.1877 61C80.4543 60.8267 79.821 60.5933 79.2877 60.3C78.6343 59.94 78.2143 59.48 78.0277 58.92C77.8543 58.36 77.7677 57.6533 77.7677 56.8C78.6077 57.48 79.4877 58.0267 80.4077 58.44C81.3277 58.84 82.2943 59.04 83.3077 59.04C84.281 59.04 84.961 58.8733 85.3477 58.54C85.7477 58.1933 85.9477 57.7467 85.9477 57.2C85.9477 56.76 85.8143 56.38 85.5477 56.06C85.2943 55.7267 84.821 55.4733 84.1277 55.3L81.9077 54.76C80.6143 54.44 79.6477 53.9333 79.0077 53.24C78.3677 52.5333 78.0477 51.6867 78.0477 50.7C78.0477 49.82 78.2677 49.0667 78.7077 48.44C79.161 47.8133 79.7943 47.3333 80.6077 47C81.4343 46.6533 82.401 46.48 83.5077 46.48C84.0943 46.48 84.6343 46.5267 85.1277 46.62C85.621 46.7 86.0277 46.8 86.3477 46.92C87.1743 47.2267 87.7077 47.6333 87.9477 48.14C88.201 48.6467 88.3277 49.2933 88.3277 50.08C87.741 49.6933 87.0277 49.3667 86.1877 49.1C85.3477 48.82 84.4943 48.68 83.6277 48.68C82.7343 48.68 82.0543 48.8333 81.5877 49.14C81.1343 49.4333 80.9077 49.8333 80.9077 50.34C80.9077 50.7933 81.0877 51.1733 81.4477 51.48C81.8077 51.7867 82.3743 52.04 83.1477 52.24L84.8677 52.68C86.2543 53.0267 87.261 53.5333 87.8877 54.2C88.5143 54.8533 88.8277 55.7333 88.8277 56.84C88.8277 57.8 88.601 58.6067 88.1477 59.26C87.7077 59.9133 87.081 60.4067 86.2677 60.74C85.4677 61.0733 84.5277 61.24 83.4477 61.24ZM91.2969 61V46.72H96.4969C97.6435 46.72 98.6369 46.8933 99.4769 47.24C100.317 47.5867 100.964 48.08 101.417 48.72C101.87 49.36 102.097 50.12 102.097 51C102.097 51.9733 101.817 52.82 101.257 53.54C100.697 54.2467 99.9235 54.7667 98.9369 55.1L101.557 58.38C102.104 59.0733 102.577 59.62 102.977 60.02C103.377 60.4067 103.737 60.7333 104.057 61H102.257C101.524 61 100.904 60.8733 100.397 60.62C99.8902 60.3667 99.4235 59.96 98.9969 59.4L94.6769 53.6H95.9769C98.1369 53.6 99.2169 52.8 99.2169 51.2C99.2169 49.68 98.1169 48.92 95.9169 48.92H94.1369V61H91.2969Z" fill="#222222"/>
<path d="M59.1725 101.336C58.3139 101.336 57.5299 101.252 56.8205 101.084C56.1112 100.935 55.5699 100.72 55.1965 100.44C54.8419 100.179 54.5992 99.8147 54.4685 99.348C54.3379 98.8627 54.2725 98.088 54.2725 97.024C54.8325 97.3973 55.5512 97.7053 56.4285 97.948C57.3245 98.1907 58.2019 98.312 59.0605 98.312C62.3832 98.312 64.2499 96.2773 64.6605 92.208C63.4472 93.272 61.8979 93.804 60.0125 93.804C58.6499 93.804 57.4645 93.5427 56.4565 93.02C55.4485 92.4973 54.6645 91.7693 54.1045 90.836C53.5632 89.884 53.2925 88.764 53.2925 87.476C53.2925 86.0573 53.5912 84.844 54.1885 83.836C54.8045 82.8093 55.6539 82.0253 56.7365 81.484C57.8379 80.9427 59.1259 80.672 60.6005 80.672C63.2325 80.672 65.2205 81.484 66.5645 83.108C67.9272 84.732 68.6085 87.1213 68.6085 90.276C68.6085 93.804 67.7872 96.5293 66.1445 98.452C64.5019 100.375 62.1779 101.336 59.1725 101.336ZM64.7165 89.464C64.5485 85.5813 63.1672 83.64 60.5725 83.64C59.5085 83.64 58.6779 83.9573 58.0805 84.592C57.5019 85.208 57.2125 86.0947 57.2125 87.252C57.2125 88.4093 57.5019 89.296 58.0805 89.912C58.6779 90.528 59.5365 90.836 60.6565 90.836C62.1499 90.836 63.5032 90.3787 64.7165 89.464ZM78.7835 101.336C77.6075 101.336 76.5248 101.224 75.5355 101C74.5648 100.757 73.7715 100.403 73.1555 99.936C72.6515 99.5627 72.3155 99.068 72.1475 98.452C71.9982 97.836 71.9235 96.912 71.9235 95.68C72.6328 96.4267 73.5195 97.052 74.5835 97.556C75.6662 98.06 76.9075 98.312 78.3075 98.312C79.7822 98.312 80.8648 98.0133 81.5555 97.416C82.2648 96.8 82.6195 95.9507 82.6195 94.868C82.6195 93.7853 82.2742 92.9267 81.5835 92.292C80.9115 91.6573 79.9035 91.34 78.5595 91.34C77.0662 91.34 75.6568 91.788 74.3315 92.684L72.4835 91.872L73.3235 81.008H85.6435V84.144H76.1795L75.7595 89.072C76.2262 88.792 76.7582 88.5773 77.3555 88.428C77.9715 88.26 78.6715 88.176 79.4555 88.176C81.6768 88.176 83.4128 88.7733 84.6635 89.968C85.9142 91.144 86.5395 92.7307 86.5395 94.728C86.5395 96.8747 85.8488 98.5173 84.4675 99.656C83.0862 100.776 81.1915 101.336 78.7835 101.336ZM92.0664 101L106.346 81.008H110.238L95.9584 101H92.0664ZM108.25 101.224C106.738 101.224 105.544 100.72 104.666 99.712C103.789 98.6853 103.35 97.2947 103.35 95.54C103.35 93.7667 103.789 92.376 104.666 91.368C105.544 90.36 106.738 89.856 108.25 89.856C109.762 89.856 110.957 90.36 111.834 91.368C112.712 92.376 113.15 93.7667 113.15 95.54C113.15 97.2947 112.712 98.6853 111.834 99.712C110.957 100.72 109.762 101.224 108.25 101.224ZM108.25 98.788C108.81 98.788 109.249 98.5173 109.566 97.976C109.884 97.416 110.042 96.604 110.042 95.54C110.042 94.476 109.884 93.6733 109.566 93.132C109.249 92.572 108.81 92.292 108.25 92.292C107.69 92.292 107.252 92.572 106.934 93.132C106.617 93.6733 106.458 94.476 106.458 95.54C106.458 96.604 106.617 97.416 106.934 97.976C107.252 98.5173 107.69 98.788 108.25 98.788ZM94.1664 92.012C92.6544 92.012 91.4598 91.508 90.5824 90.5C89.7051 89.4733 89.2664 88.0827 89.2664 86.328C89.2664 84.5547 89.7051 83.164 90.5824 82.156C91.4598 81.148 92.6544 80.644 94.1664 80.644C95.6784 80.644 96.8731 81.148 97.7504 82.156C98.6278 83.164 99.0664 84.5547 99.0664 86.328C99.0664 88.0827 98.6278 89.4733 97.7504 90.5C96.8731 91.508 95.6784 92.012 94.1664 92.012ZM94.1664 89.576C94.7264 89.576 95.1651 89.3053 95.4824 88.764C95.7998 88.204 95.9584 87.392 95.9584 86.328C95.9584 85.264 95.7998 84.4613 95.4824 83.92C95.1651 83.36 94.7264 83.08 94.1664 83.08C93.6064 83.08 93.1678 83.36 92.8504 83.92C92.5331 84.4613 92.3744 85.264 92.3744 86.328C92.3744 87.392 92.5331 88.204 92.8504 88.764C93.1678 89.3053 93.6064 89.576 94.1664 89.576Z" fill="#051766"/>
</g>
<defs>
<filter id="filter0_d_942_46090" x="1" y="0" width="166" height="167" filterUnits="userSpaceOnUse" color-interpolation-filters="sRGB">
<feFlood flood-opacity="0" result="BackgroundImageFix"/>
<feColorMatrix in="SourceAlpha" type="matrix" values="0 0 0 0 0 0 0 0 0 0 0 0 0 0 0 0 0 0 127 0" result="hardAlpha"/>
<feOffset dy="4"/>
<feGaussianBlur stdDeviation="1.5"/>
<feComposite in2="hardAlpha" operator="out"/>
<feColorMatrix type="matrix" values="0 0 0 0 0.133333 0 0 0 0 0.133333 0 0 0 0 0.133333 0 0 0 0.2 0"/>
<feBlend mode="normal" in2="BackgroundImageFix" result="effect1_dropShadow_942_46090"/>
<feBlend mode="normal" in="SourceGraphic" in2="effect1_dropShadow_942_46090" result="shape"/>
</filter>
<clipPath id="clip0_942_46090">
<rect width="165" height="165" fill="white"/>
</clipPath>
<clipPath id="clip1_942_46090">
<rect x="-16" width="197" height="165" rx="82.5" fill="white"/>
</clipPath>
</defs>
</svg>
