<svg width="36" height="36" viewBox="0 0 36 36" fill="none" xmlns="http://www.w3.org/2000/svg">
<g clip-path="url(#clip0_638_6405)">
<path fill-rule="evenodd" clip-rule="evenodd" d="M8.5595 7.41172L8.23806 7.09082L8.23112 7.64612L8.22632 8.132C8.2151 9.37929 8.59207 10.421 9.31556 11.1434L12.4824 14.3038L12.4928 14.2931L16.2959 18.1183L12.4861 21.8898L12.4824 21.8864L11.5662 22.8003L10.9997 23.3616L11.0018 23.3636L9.31561 25.0468C8.59212 25.7692 8.21516 26.8109 8.22637 28.0582L8.23118 28.5441L8.23812 29.0994L8.55902 28.7785L8.62843 28.7096L13.9705 23.3782L13.9598 23.3677L17.9761 19.3926L21.9923 23.3677L21.9816 23.3782L27.3237 28.7096L27.3931 28.7785L27.714 29.0994L27.721 28.5441L27.7258 28.0582C27.737 26.8109 27.36 25.7692 26.6365 25.0468L24.9503 23.3636L24.9524 23.3616L24.3859 22.8003L23.4697 21.8864L23.4661 21.8898L19.6563 18.1183L23.4593 14.2931L23.4698 14.3038L26.6366 11.1434C27.3601 10.421 27.737 9.37929 27.7258 8.132L27.721 7.64612L27.7141 7.09082L27.3927 7.41172L27.3238 7.4806L23.9843 10.8131L23.9791 10.8081L22.6291 12.1657L21.9817 12.812L21.9844 12.8144L17.9761 16.8467L13.9677 12.8144L13.9705 12.812L13.3231 12.1657L11.9731 10.8081L11.9678 10.8131L8.62837 7.4806L8.5595 7.41172Z" fill="#051766"/>
</g>
<defs>
<clipPath id="clip0_638_6405">
<rect width="36" height="36" fill="white"/>
</clipPath>
</defs>
</svg>
