<svg width="96" height="96" viewBox="0 0 96 96" fill="none" xmlns="http://www.w3.org/2000/svg">
<g id="icons/pagination-first">
<path id="Union" fill-rule="evenodd" clip-rule="evenodd" d="M17.1713 45.2883L17.1611 45.2883L17.1611 45.2782L17.1713 45.2883ZM17.1713 45.2883L48.1017 76.1172L78.8391 45.2782L75.9248 45.2782C74.3814 45.1868 72.848 45.4 71.3959 45.9179C69.9439 46.4358 68.6136 47.238 67.4763 48.2737L48.0712 67.8312L28.5138 48.2737C27.3866 47.238 26.0564 46.4358 24.6043 45.9179C23.1522 45.4102 21.6088 45.1969 20.0755 45.2883L17.1713 45.2883ZM17.1917 19.8921L17.1611 19.8921L17.1713 19.8718L17.1917 19.8921ZM17.1917 19.8921L48.1118 50.7108L77.7526 20.9685L77.9456 20.7755L78.8391 19.8819L75.9248 19.8819C74.3813 19.7906 72.848 20.0038 71.3959 20.5217C69.9439 21.0395 68.6136 21.8417 67.4763 22.8775L48.0712 42.4349L28.5138 22.8775C27.3866 21.8417 26.0564 21.0395 24.6043 20.5217C23.1522 20.014 21.6088 19.8007 20.0755 19.8921L17.1917 19.8921Z" fill="white"/>
</g>
</svg>
