<svg width="96" height="96" viewBox="0 0 96 96" fill="none" xmlns="http://www.w3.org/2000/svg">
<g id="icons/error">
<path id="Union" fill-rule="evenodd" clip-rule="evenodd" d="M83.6524 72.0359L53.2804 18.0244C52.1939 16.0951 50.224 14.9375 48.0001 14.9375C45.7763 14.9375 43.8064 16.0951 42.7198 18.0244L12.3479 72.0359C11.2817 73.9348 11.302 76.189 12.3987 78.0575C13.4954 79.936 15.4552 81.053 17.6282 81.053H78.3822C80.5553 81.053 82.5151 79.936 83.6117 78.0575C84.7084 76.1789 84.7287 73.9246 83.6625 72.0359H83.6524ZM78.8696 75.2954C78.7985 75.4275 78.6462 75.5798 78.372 75.5798H17.6282C17.3541 75.5798 17.2119 75.4275 17.1307 75.2954C17.0596 75.1634 16.9885 74.9603 17.1307 74.7268L47.5026 20.7154C47.726 20.3295 48.2845 20.3295 48.4977 20.7154L78.8696 74.7268C79.0016 74.9603 78.9407 75.1634 78.8696 75.2954ZM50.9447 58.6118L51.8992 36.2517H44.1006L45.0653 58.6118H50.9447ZM43.522 66.7454C43.522 64.3388 45.2584 62.2673 48.0001 62.2673C50.7418 62.2673 52.4782 64.3388 52.4782 66.7454C52.4782 69.152 50.7418 71.2235 48.0001 71.2235C45.2584 71.2235 43.522 69.152 43.522 66.7454Z" fill="#051766"/>
</g>
</svg>
