<svg width="96" height="96" viewBox="0 0 96 96" fill="none" xmlns="http://www.w3.org/2000/svg">
<g id="icons/file-pdf">
<path id="Union" fill-rule="evenodd" clip-rule="evenodd" d="M26.5002 10.2002C23.0208 10.2002 20.2002 13.0208 20.2002 16.5002V79.5002C20.2002 82.9796 23.0208 85.8002 26.5002 85.8002H59.16L75.8002 69.16V28.0002H75.7981C75.7465 24.9146 74.4991 21.8897 72.1785 19.2493L70.1998 17L70.1998 28.2H70.2002V66.8404L56.8404 80.2002H26.5002C26.1136 80.2002 25.8002 79.8868 25.8002 79.5002V16.5002C25.8002 16.1136 26.1136 15.8002 26.5002 15.8002H58.0002H69.2002L66.9509 13.8215C64.2535 11.4509 61.1549 10.2002 58.0002 10.2002H26.5002ZM51.0609 37.2141C51.816 33.896 50.3833 31.3078 48.008 30.4926C46.8996 30.1122 45.6417 30.1646 44.5592 30.753C43.4427 31.3598 42.66 32.4566 42.4042 33.8613C41.9993 36.0856 42.5747 38.2298 43.3762 40.0502C43.9769 41.4144 44.7531 42.7006 45.4653 43.8086C44.383 46.749 43.1549 49.3616 41.9054 51.6467C40.664 52.0343 39.4559 52.4709 38.3157 52.9605C35.5348 54.1547 32.9683 55.7438 31.3903 57.8773C30.5455 59.0197 30.1121 60.3 30.2883 61.5508C30.4693 62.8355 31.2694 63.8562 32.3915 64.3734C34.6206 65.4009 37.3911 64.3154 39.3997 61.7693C40.8304 59.9558 42.5443 57.5664 44.259 54.6013C45.5369 54.2456 46.8542 53.9375 48.1712 53.6752C49.8732 53.3362 51.558 53.0767 53.1334 52.8893C55.0764 54.5096 57.3846 56.0012 60.061 57.0189C61.3698 57.5166 62.703 57.6146 63.8391 57.0537C65.0137 56.4739 65.604 55.3736 65.725 54.2934C65.9581 52.2121 64.5545 49.92 61.9843 49.2684C60.8154 48.9721 58.6542 48.9428 56.2175 49.0938C55.6052 49.1318 54.9607 49.1822 54.291 49.2457C52.0085 47.1179 50.3559 44.848 49.3415 43.3368C49.9865 41.4175 50.5687 39.3766 51.0609 37.2141ZM47.6481 36.4374C47.4215 37.4333 47.1747 38.4017 46.9106 39.3428C46.7942 39.1102 46.6834 38.8758 46.5795 38.6397C45.9156 37.132 45.6195 35.7414 45.8477 34.4881C45.9289 34.0418 46.1172 33.8897 46.2305 33.8282C46.3777 33.7481 46.6084 33.7127 46.8719 33.8031C47.1212 33.8887 47.3855 34.0856 47.562 34.4478C47.7374 34.8079 47.875 35.4404 47.6481 36.4374ZM46.4477 50.4588C46.9314 49.4524 47.4049 48.3972 47.8612 47.2933C48.4493 48.0707 49.1404 48.9247 49.9349 49.803C49.1289 49.9325 48.3102 50.0787 47.4875 50.2426C47.142 50.3114 46.7952 50.3835 46.4477 50.4588ZM34.2043 59.9585C35.1314 58.705 36.7493 57.5462 38.9104 56.5298C38.1104 57.6985 37.3454 58.7224 36.6519 59.6015C35.1748 61.4738 34.024 61.2719 33.8567 61.1948C33.7806 61.1597 33.7638 61.131 33.7541 61.0626C33.7397 60.9602 33.7421 60.5836 34.2043 59.9585ZM61.305 53.7475C60.3808 53.396 59.5047 52.9756 58.6768 52.5056C59.9069 52.4978 60.7476 52.5656 61.1242 52.6611C62.0397 52.8932 62.2806 53.6013 62.2468 53.9039L62.2456 53.9138L62.2439 53.9255C62.1377 53.9434 61.8522 53.9555 61.305 53.7475ZM62.2343 53.9672C62.2343 53.9671 62.2347 53.9659 62.2357 53.964C62.2349 53.9663 62.2344 53.9673 62.2343 53.9672Z" fill="#DA291C"/>
</g>
</svg>
