<svg width="96" height="96" viewBox="0 0 96 96" fill="none" xmlns="http://www.w3.org/2000/svg">
<g id="icons/file-word">
<path id="Union" fill-rule="evenodd" clip-rule="evenodd" d="M20.2002 16.5002C20.2002 13.0208 23.0208 10.2002 26.5002 10.2002H58.0002C61.1549 10.2002 64.2535 11.4509 66.9509 13.8215L69.2002 15.8002H58.0002H26.5002C26.1136 15.8002 25.8002 16.1136 25.8002 16.5002V79.5002C25.8002 79.8868 26.1136 80.2002 26.5002 80.2002H56.8404L70.2002 66.8404V28.2H70.1998L70.1998 17L72.1785 19.2493C74.4991 21.8897 75.7465 24.9146 75.7981 28.0002H75.8002V69.16L59.16 85.8002H26.5002C23.0208 85.8002 20.2002 82.9796 20.2002 79.5002V16.5002ZM39.6721 59.848L39.6722 59.8482H42.1682L48.5041 44.2963L48.504 44.296L42.168 59.848H39.6721ZM54.8401 59.848L54.8402 59.8482H57.3362L65.7202 37.0002H65.7199L57.336 59.848H54.8401ZM56.184 52.3279L50.1042 37.3522H50.1041L56.184 52.328L56.184 52.3279ZM41.3361 52.4239L41.336 52.424L35.7361 37.0002H35.7362L41.3361 52.4239ZM30.5654 36.7002L39.4652 60.1482H42.3699L48.5042 45.0913L54.6385 60.1482H57.5457L66.1498 36.7002H61.3799L56.1645 51.4823L50.3062 37.0522H47.2785L41.3524 51.5897L35.9464 36.7002H30.5654Z" fill="#6974A3"/>
</g>
</svg>
