<svg width="96" height="96" viewBox="0 0 96 96" fill="none" xmlns="http://www.w3.org/2000/svg">
<g id="icons/file-ppt">
<path id="Union" fill-rule="evenodd" clip-rule="evenodd" d="M26.5002 10.2002C23.0208 10.2002 20.2002 13.0208 20.2002 16.5002V79.5002C20.2002 82.9796 23.0208 85.8002 26.5002 85.8002H59.16L75.8002 69.16V28.0002H75.7981C75.7465 24.9146 74.4991 21.8897 72.1785 19.2493L70.1998 17L70.1998 28.2H70.2002V66.8404L56.8404 80.2002H26.5002C26.1136 80.2002 25.8002 79.8868 25.8002 79.5002V16.5002C25.8002 16.1136 26.1136 15.8002 26.5002 15.8002H58.0002H69.2002L66.9509 13.8215C64.2535 11.4509 61.1549 10.2002 58.0002 10.2002H26.5002ZM39 35V60.704H44.076V52.352H48.54C54.876 52.352 58.872 48.896 58.872 43.676C58.872 38.384 54.876 35 48.54 35H39ZM47.532 48.392H44.076V38.96H47.532C51.564 38.96 53.688 40.616 53.688 43.676C53.688 46.808 51.564 48.392 47.532 48.392Z" fill="#C84300"/>
</g>
</svg>
