<svg width="96" height="96" viewBox="0 0 96 96" fill="none" xmlns="http://www.w3.org/2000/svg">
<g id="icons/image">
<path id="Union" fill-rule="evenodd" clip-rule="evenodd" d="M59.0438 53.591L73.3412 79.0279H79.8807L77.6772 80.9674C76.9359 81.6172 76.1642 82.1656 75.3721 82.6428C73.3311 83.8715 71.1377 84.5112 68.9139 84.5112H16.6592V12.0391H79.8604V66.6496C79.8604 69.7365 78.6317 72.7727 76.3165 75.4129L74.377 77.6164V17.5225H22.1426V79.038H23.0565L42.1773 45.0207L52.3723 62.9534L59.0438 53.591ZM42.2077 56.1499L29.3522 79.0177H67.0556L58.4954 63.7962L51.8544 73.1281L42.2077 56.1499ZM61.0546 40.9382C56.1297 40.9382 52.1187 36.9272 52.1187 32.0023C52.1187 27.0774 56.1297 23.0664 61.0546 23.0664C65.9795 23.0664 69.9905 27.0774 69.9905 32.0023C69.9905 36.9272 65.9795 40.9382 61.0546 40.9382ZM61.0647 35.4548C62.9636 35.4548 64.5172 33.9113 64.5172 32.0023C64.5172 30.1034 62.9636 28.5498 61.0647 28.5498C59.1658 28.5498 57.6122 30.1034 57.6122 32.0023C57.6122 33.9012 59.1658 35.4548 61.0647 35.4548Z" fill="#051766"/>
</g>
</svg>
