<svg width="96" height="96" viewBox="0 0 96 96" fill="none" xmlns="http://www.w3.org/2000/svg">
<g id="icons/warning" clip-path="url(#clip0_757_9976)">
<path id="Fill-2" fill-rule="evenodd" clip-rule="evenodd" d="M47.9824 76.2619C32.3993 76.2619 19.7211 63.5836 19.7211 48.0005C19.7211 32.4159 32.3993 19.7376 47.9824 19.7376C63.5656 19.7376 76.2438 32.4159 76.2438 48.0005C76.2438 63.5836 63.5656 76.2619 47.9824 76.2619ZM47.9824 14.144C29.3144 14.144 14.126 29.331 14.126 48.0005C14.126 66.6685 29.3144 81.8555 47.9824 81.8555C66.6505 81.8555 81.8389 66.6685 81.8389 48.0005C81.8389 29.331 66.6505 14.144 47.9824 14.144Z" fill="#051766"/>
<path id="Oval" d="M48 66C49.6569 66 51 64.6569 51 63C51 61.3431 49.6569 60 48 60C46.3431 60 45 61.3431 45 63C45 64.6569 46.3431 66 48 66Z" fill="#051766"/>
<path id="Fill-4-Copy-3" fill-rule="evenodd" clip-rule="evenodd" d="M45 28V56H51V28H45Z" fill="#051766"/>
</g>
<defs>
<clipPath id="clip0_757_9976">
<rect width="96" height="96" fill="white"/>
</clipPath>
</defs>
</svg>
