<svg xmlns="http://www.w3.org/2000/svg" xmlns:xlink="http://www.w3.org/1999/xlink" width="18" height="18" viewBox="0 0 18 18">
    <defs>
        <path id="ydrl3sao9a" d="M7.084 0l.237.008C10.861.172 13.785 3 13.99 6.614c.218 3.854-2.74 7.163-6.595 7.376l-.24.01h-.239C3.27 13.956.22 11.08.011 7.388-.207 3.533 2.752.224 6.606.01c.16-.01.32-.012.478-.01zm-.429.948C3.283 1.132.694 3.998.885 7.335c.19 3.338 3.088 5.903 6.46 5.718 3.373-.184 5.961-3.05 5.771-6.387-.19-3.338-3.089-5.902-6.46-5.718zm.917 4.955v4.221H6.375v-4.22h1.197zM7.604 3.5v1.063h-1.26V3.5h1.26z"/>
    </defs>
    <g fill="none" fill-rule="evenodd">
        <g>
            <path d="M0 0H18V18H0z"/>
            <g transform="translate(2 2)">
                <use fill="#009BFA" xlink:href="#ydrl3sao9a"/>
            </g>
        </g>
    </g>
</svg>
