<svg width="48" height="48" viewBox="0 0 48 48" fill="none" xmlns="http://www.w3.org/2000/svg">
<g clip-path="url(#clip0_942_46847)">
<path fill-rule="evenodd" clip-rule="evenodd" d="M30.9296 16.0631C31.3296 15.5881 31.5195 14.9831 31.4645 14.3681C31.4095 13.7481 31.1195 13.1881 30.6445 12.7881L24.9945 8.04306C24.0145 7.21806 22.5445 7.34805 21.7195 8.32805L6.49951 26.4731L7.80957 34.2681L15.7096 34.2031L30.9296 16.0581V16.0631ZM10.0095 31.6481L9.26953 27.2331L18.8296 15.8381L19.2996 16.2331L19.3045 16.2272C20.4289 17.1694 21.907 17.648 23.5746 17.613L24.9695 17.578L20.9745 14.228L20.9696 14.2339L20.5045 13.8431L23.5345 10.2281L28.7545 14.6081L14.4895 31.6181L10.0145 31.6531L10.0095 31.6481ZM41.0446 38.3331H8.10449V40.9381H41.0446V38.3331Z" fill="#E9E9E9"/>
</g>
<defs>
<clipPath id="clip0_942_46847">
<rect width="48" height="48" fill="white" transform="translate(-0.000488281 -0.000244141)"/>
</clipPath>
</defs>
</svg>
