<svg xmlns="http://www.w3.org/2000/svg" xmlns:xlink="http://www.w3.org/1999/xlink" width="48" height="48" viewBox="0 0 48 48">
  <defs>
    <clipPath id="clip-path">
      <rect id="사각형_882" data-name="사각형 882" width="48" height="48" transform="translate(0 0)" fill="none"/>
    </clipPath>
  </defs>
  <g id="icon_csr_04" transform="translate(0 0)">
    <g id="그룹_532" data-name="그룹 532" transform="translate(0 0)" clip-path="url(#clip-path)">
      <path id="패스_796" data-name="패스 796" d="M39.995,11.765H35.871V7.642A7.651,7.651,0,0,0,28.229,0H19.406a7.651,7.651,0,0,0-7.641,7.642v4.123H7.642A7.651,7.651,0,0,0,0,19.407v8.823a7.65,7.65,0,0,0,7.642,7.641h4.123V40a7.65,7.65,0,0,0,7.641,7.641h8.823A7.65,7.65,0,0,0,35.871,40V35.871h4.123a7.65,7.65,0,0,0,7.642-7.641V19.407a7.651,7.651,0,0,0-7.642-7.642M15.283,35.871H32.354V40a4.128,4.128,0,0,1-4.125,4.123H19.406A4.128,4.128,0,0,1,15.283,40ZM32.354,11.765H15.283V7.642a4.127,4.127,0,0,1,4.123-4.123h8.823a4.128,4.128,0,0,1,4.125,4.123Zm0,20.589H15.283V15.283H32.354Zm-20.589,0H7.642a4.128,4.128,0,0,1-4.125-4.123V19.407a4.129,4.129,0,0,1,4.125-4.125h4.123ZM35.871,15.283h4.123a4.128,4.128,0,0,1,4.123,4.125v8.823a4.128,4.128,0,0,1-4.123,4.123H35.871Z" transform="translate(0 0)" fill="#fff"/>
      <path id="패스_797" data-name="패스 797" d="M17.072,22.97a1.759,1.759,0,1,0,1.759,1.759,1.761,1.761,0,0,0-1.759-1.759" transform="translate(2.335 3.502)" fill="#fff"/>
      <path id="패스_798" data-name="패스 798" d="M17.072,18.83a1.759,1.759,0,1,0-1.759-1.759,1.761,1.761,0,0,0,1.759,1.759" transform="translate(2.335 2.335)" fill="#fff"/>
      <path id="패스_799" data-name="패스 799" d="M20.9,22.658A1.759,1.759,0,1,0,19.142,20.9,1.761,1.761,0,0,0,20.9,22.658" transform="translate(2.918 2.918)" fill="#fff"/>
      <path id="패스_800" data-name="패스 800" d="M24.727,26.487a1.759,1.759,0,1,0-1.757-1.759,1.761,1.761,0,0,0,1.757,1.759" transform="translate(3.502 3.502)" fill="#fff"/>
      <path id="패스_801" data-name="패스 801" d="M24.727,18.83a1.759,1.759,0,1,0-1.757-1.759,1.761,1.761,0,0,0,1.757,1.759" transform="translate(3.502 2.335)" fill="#fff"/>
    </g>
  </g>
</svg>
