<svg xmlns="http://www.w3.org/2000/svg" xmlns:xlink="http://www.w3.org/1999/xlink" width="41.685" height="41.685" viewBox="0 0 41.685 41.685">
  <defs>
    <clipPath id="clip-path">
      <rect id="사각형_885" data-name="사각형 885" width="41.685" height="41.685" transform="translate(0 0)" fill="none"/>
    </clipPath>
  </defs>
  <g id="icon_csr_06" transform="translate(0 0)">
    <g id="그룹_534" data-name="그룹 534" clip-path="url(#clip-path)">
      <path id="패스_802" data-name="패스 802" d="M32.966,20.842l6.211-6.21A8.573,8.573,0,0,0,27.053,2.508L20.842,8.719,14.631,2.508a8.58,8.58,0,0,0-12.124,0,8.583,8.583,0,0,0,0,12.124l6.211,6.211-6.211,6.21A8.573,8.573,0,0,0,14.631,39.177l6.211-6.211,6.211,6.211A8.573,8.573,0,0,0,39.177,27.053Zm-14.43,9.819-6.211,6.211a5.312,5.312,0,0,1-7.512-7.513l6.211-6.211Zm4.612-19.637,6.211-6.211a5.312,5.312,0,0,1,7.512,7.513L30.66,18.537Zm15.28,22.091a5.312,5.312,0,0,1-9.069,3.756L4.813,12.325a5.312,5.312,0,1,1,7.512-7.512L36.871,29.359a5.28,5.28,0,0,1,1.557,3.756" fill="#fff"/>
      <rect id="사각형_883" data-name="사각형 883" width="7.749" height="3.261" transform="translate(21.859 27.339) rotate(-45.012)" fill="#fff"/>
      <rect id="사각형_884" data-name="사각형 884" width="7.749" height="3.261" transform="translate(12.04 17.52) rotate(-45)" fill="#fff"/>
      <path id="패스_803" data-name="패스 803" d="M7.342,35.973a1.63,1.63,0,1,0-1.631-1.631,1.632,1.632,0,0,0,1.631,1.631" fill="#fff"/>
      <path id="패스_804" data-name="패스 804" d="M8.569,31.064a1.63,1.63,0,1,0-1.63-1.631,1.633,1.633,0,0,0,1.63,1.631" fill="#fff"/>
      <path id="패스_805" data-name="패스 805" d="M12.252,34.746a1.63,1.63,0,1,0-1.632-1.63,1.631,1.631,0,0,0,1.632,1.63" fill="#fff"/>
      <path id="패스_806" data-name="패스 806" d="M34.342,5.712a1.63,1.63,0,1,0,1.63,1.63,1.632,1.632,0,0,0-1.63-1.63" fill="#fff"/>
      <path id="패스_807" data-name="패스 807" d="M33.115,10.621a1.631,1.631,0,1,0,1.631,1.631,1.632,1.632,0,0,0-1.631-1.631" fill="#fff"/>
      <path id="패스_808" data-name="패스 808" d="M29.433,6.939A1.63,1.63,0,1,0,31.064,8.57a1.633,1.633,0,0,0-1.631-1.631" fill="#fff"/>
    </g>
  </g>
</svg>
