<svg xmlns="http://www.w3.org/2000/svg" xmlns:xlink="http://www.w3.org/1999/xlink" width="73.838" height="91.433" viewBox="0 0 73.838 91.433">
  <defs>
    <clipPath id="clip-path">
      <rect id="사각형_1616" data-name="사각형 1616" width="73.838" height="91.433" fill="#fff"/>
    </clipPath>
  </defs>
  <g id="icon_CSR" transform="translate(-906.082 -529.897)">
    <g id="그룹_1307" data-name="그룹 1307" transform="translate(906.082 529.897)">
      <g id="그룹_1304" data-name="그룹 1304" clip-path="url(#clip-path)">
        <path id="패스_1304" data-name="패스 1304" d="M70.211,89.781c-.484,3.3,3.037,3.181,3.037,3.181,6.467.056,9.622-8.807,9.622-8.807-11.988-1.262-12.658,5.626-12.658,5.626" transform="translate(-27.908 -33.411)" fill="#fff"/>
        <path id="패스_1305" data-name="패스 1305" d="M73.92,101.254c10.8,7.824,18.421-1.386,18.421-1.386A18.547,18.547,0,0,0,81.55,94.994c-1.837,2.194-4.434,4.153-7.857,4.154h-.119a5.532,5.532,0,0,1-2.461-.64,12.476,12.476,0,0,0,2.808,2.746" transform="translate(-28.285 -37.784)" fill="#fff"/>
        <path id="패스_1306" data-name="패스 1306" d="M56.4,95.779c-6.833.937-9.861-1.548-9.861-1.548-1.712-1.21-2.065-1.113-2.065-1.113-1.223-.061-2.007,2.7-2.007,2.7-2.174-.326-1.916,2.554-1.916,2.554,4.515,4.7,13.459,3.994,13.459,3.994a12.362,12.362,0,0,0,5.747-1.307A9.934,9.934,0,0,1,56.4,95.779" transform="translate(-16.124 -37.037)" fill="#fff"/>
        <path id="패스_1307" data-name="패스 1307" d="M49.95,62.743l.189.03.189-.03C67.241,60.056,67.1,38.226,67.1,38.006l0-.044c-.944-18.193-15.89-18.223-16.954-18.2-1.079-.022-16.01.013-16.956,18.248,0,.22-.146,22.05,16.767,24.737m.189-2.41C38.767,58.4,36.279,46.538,35.74,40.96c3.517.525,16.118,1.53,20.588-10.034,0,0-3.074,8.7,8.285,9.122-.358,5.105-2.451,18.242-14.473,20.285" transform="translate(-13.199 -7.858)" fill="#fff"/>
        <path id="패스_1308" data-name="패스 1308" d="M54.874,8.859a20.068,20.068,0,0,1,9.387,2.52,9.563,9.563,0,1,0-18.771.013,20.19,20.19,0,0,1,9.384-2.534" transform="translate(-18.023)" fill="#fff"/>
        <path id="패스_1309" data-name="패스 1309" d="M73.838,128.312l-1.809-12.933a5.523,5.523,0,0,0-3.256-4.069l-8.454-3.091a13.782,13.782,0,0,1-6.147,1.491,15.649,15.649,0,0,1-8.671-2.846l-.344.16a16.037,16.037,0,0,1-3.58,1.139L36.853,121.6l-4.719-13.318a16.9,16.9,0,0,1-8.574-3.733l-18.5,6.762a5.523,5.523,0,0,0-3.256,4.069L0,128.312c8.977,3.857,27.324,4.56,35.11,4.681l-.007.022s.659.007,1.816,0c1.157.008,1.816,0,1.816,0l-.007-.022c7.786-.121,26.133-.824,35.11-4.681" transform="translate(0 -41.584)" fill="#fff"/>
      </g>
    </g>
  </g>
</svg>
