<svg width="96" height="96" viewBox="0 0 96 96" fill="none" xmlns="http://www.w3.org/2000/svg">
<g id="icons/my">
<path id="Union" fill-rule="evenodd" clip-rule="evenodd" d="M20.981 59.9343C20.981 59.5854 21.0118 59.2878 21.0939 59.0107C21.7404 56.5373 23.3723 54.4334 25.6814 53.0684L50.5384 37.7765C55.2696 34.9234 57.8662 29.7303 57.2914 24.2294C56.5525 17.0658 50.5281 11.6572 43.2927 11.6572H43.0977C36.6218 11.7393 29.4172 17.1069 29.4172 24.6604C29.4172 27.3083 29.6737 30.3974 32.804 33.4969C34.5179 35.1903 37.3197 36.1242 40.3062 36.001L41.8149 35.9292L40.5628 35.0774C38.3254 33.5584 34.5384 29.8946 34.5384 25.8407C34.5384 21.3147 37.4326 17.8355 41.7533 17.1582C46.31 16.4398 50.5692 19.1903 51.6776 23.5315C52.6115 27.1954 51.1644 30.9106 48.0034 32.9632L22.7975 48.1935C19.2979 50.2563 16.6911 53.7252 15.634 57.697C15.5006 58.2204 15.4287 59.2467 15.4287 59.7701V75.7291H36.7237V70.187H20.981V59.9343ZM43.9275 62.6606L51.2039 76.0538L58.0493 62.6606H63.2732V83.7613H58.0904V72.7183L52.3944 83.7613H49.6029L43.5067 72.5541V83.7613H38.7139V62.6606H43.9275ZM75.4145 71.0557L80.1765 62.6606H85.6878L77.8366 75.9409V83.7613H72.4382V75.8588L64.5152 62.6606H70.673L75.4145 71.0557ZM71.9267 59.6275V59.648V61.013H66.3846V59.7814C66.3846 59.4941 66.3641 59.2683 66.3231 59.063C65.5123 55.0604 61.0787 51.8584 53.6893 47.6814C53.555 47.6033 53.4096 47.5217 53.2564 47.4355C53.0468 47.3178 52.8224 47.1917 52.5912 47.0553L52.5399 47.0245C51.3288 46.3266 49.8202 45.4646 48.4244 44.7359C48.3692 44.7083 48.264 44.6549 48.1343 44.5891C47.9267 44.4838 47.6564 44.3467 47.4289 44.233L46.4231 43.7301L47.5521 43.8327C50.7233 44.1201 58.79 45.2388 65.0197 49.4671C68.0062 51.4992 69.7714 53.4286 71.1159 56.1073C71.5469 56.9694 71.7727 57.6365 71.8651 58.2933C71.9359 58.8068 71.9304 59.2592 71.9275 59.4924C71.927 59.5295 71.9267 59.561 71.9267 59.5864V59.6275Z" fill="#051766"/>
</g>
</svg>
