<svg xmlns="http://www.w3.org/2000/svg" width="96" height="96" viewBox="0 0 96 96" fill="none">
  <g clip-path="url(#clip0_9_17112)">
    <path d="M28.9602 45.8528L33.1492 41.694L47.9999 56.6959L64.5443 40.2573L68.7031 44.4464L47.9697 65.074L28.9602 45.8528Z" fill="#333333" />
    <path d="M28.3857 36.9299C27.2402 35.8785 25.8945 35.0687 24.429 34.5491C22.9636 34.0294 21.4084 33.8105 19.8564 33.9054H16.9074L17.8148 34.8127L18.0114 35.0093L33.1342 50.1322L37.3687 45.9129L28.3857 36.9299Z" fill="#333333" />
    <path d="M67.7654 36.9301C68.9094 35.8764 70.2549 35.0653 71.7207 34.5455C73.1866 34.0257 74.7425 33.808 76.2947 33.9055H79.2437L78.3363 34.8129L78.1397 35.0095L63.0168 50.1323L58.7975 45.9131L67.7654 36.9301Z" fill="#333333" />
  </g>
  <defs>
    <clipPath id="clip0_9_17112">
      <rect width="96" height="96" fill="white"/>
    </clipPath>
  </defs>
</svg>