<svg width="72" height="69" viewBox="0 0 72 69" fill="none" xmlns="http://www.w3.org/2000/svg">
<path id="Combined-Shape" fill-rule="evenodd" clip-rule="evenodd" d="M46.1532 42.734L71 68L69.0346 67.5328L67.3146 67.1197C63.0588 66.0951 59.1629 63.9409 56.0225 60.879L55.6635 60.5217L42.193 46.8186C43.6568 45.6112 44.9858 44.2406 46.1532 42.734ZM26.2922 1C40.2379 1 51.5843 12.5617 51.5843 26.7746C51.5843 40.9864 40.2379 52.5481 26.2922 52.5481C12.3464 52.5481 1 40.9864 1 26.7746C1 12.5617 12.3464 1 26.2922 1ZM26.2922 6.15481C15.1354 6.15481 6.05843 15.4045 6.05843 26.7746C6.05843 38.1436 15.1354 47.3932 26.2922 47.3932C37.4489 47.3932 46.5259 38.1436 46.5259 26.7746C46.5259 15.4045 37.4489 6.15481 26.2922 6.15481Z" fill="#051766" stroke="#051766" stroke-width="0.2"/>
</svg>
