<svg xmlns="http://www.w3.org/2000/svg" xmlns:xlink="http://www.w3.org/1999/xlink" width="54.975" height="43.021" viewBox="0 0 54.975 43.021">
  <defs>
    <clipPath id="clip-path">
      <rect id="사각형_887" data-name="사각형 887" width="54.975" height="43.021" fill="#fff"/>
    </clipPath>
  </defs>
  <g id="icon_csr_08" transform="translate(0 0)">
    <g id="그룹_538" data-name="그룹 538" transform="translate(0 0)" clip-path="url(#clip-path)">
      <path id="패스_809" data-name="패스 809" d="M60.005,53.6H17.961a1.746,1.746,0,0,0-1.746,1.746v8.325a1.746,1.746,0,0,0,1.746,1.746H60.005a1.746,1.746,0,0,0,1.746-1.746V55.351A1.746,1.746,0,0,0,60.005,53.6M19.708,57.1H45.349V61.93H19.708ZM58.259,61.93H48.841V57.1h9.417Z" transform="translate(-6.776 -22.401)" fill="#fff"/>
      <rect id="사각형_886" data-name="사각형 886" width="3.493" height="11.817" transform="translate(2.911 31.204)" fill="#fff"/>
      <path id="패스_810" data-name="패스 810" d="M16.19,23.249l1.309-.733a10.74,10.74,0,0,0,5.481-9.357V10H19.487v3.159a7.243,7.243,0,0,1-3.7,6.311l-1.308.734A10.737,10.737,0,0,0,9,29.56v3.158h3.493V29.56a7.244,7.244,0,0,1,3.7-6.311" transform="translate(-3.761 -4.179)" fill="#fff"/>
      <path id="패스_811" data-name="패스 811" d="M3.493,21.889a7.244,7.244,0,0,1,3.7-6.311L8.5,14.844a10.739,10.739,0,0,0,5.481-9.357V0H10.487V5.487A7.243,7.243,0,0,1,6.79,11.8l-1.308.733A10.738,10.738,0,0,0,0,21.889v3.158H3.493Z" transform="translate(0 0)" fill="#fff"/>
    </g>
  </g>
</svg>
