<svg xmlns="http://www.w3.org/2000/svg" xmlns:xlink="http://www.w3.org/1999/xlink" width="80.944" height="86.784" viewBox="0 0 80.944 86.784">
  <defs>
    <clipPath id="clip-path">
      <rect id="사각형_1618" data-name="사각형 1618" width="80.944" height="86.784" fill="#fff"/>
    </clipPath>
  </defs>
  <g id="icon_ASR" transform="translate(-906.266 -532.646)">
    <g id="그룹_1311" data-name="그룹 1311" transform="translate(906.266 532.646)">
      <g id="그룹_1310" data-name="그룹 1310" clip-path="url(#clip-path)">
        <path id="패스_1318" data-name="패스 1318" d="M5.61,89.429A6.119,6.119,0,0,0,2,93.938L0,108.262c12.823,5.51,33.76,5.209,33.76,5.209L28.651,80.181Z" transform="translate(0 -26.691)" fill="#fff"/>
        <path id="패스_1319" data-name="패스 1319" d="M102.486,93.938a6.119,6.119,0,0,0-3.606-4.508L75.838,80.181l-5.109,33.292s20.937.3,33.76-5.209Z" transform="translate(-23.545 -26.691)" fill="#fff"/>
        <path id="패스_1320" data-name="패스 1320" d="M57.987,90.891,52.915,94.8l3.168,5.009-1.7,17.234h7.213l-1.7-17.234L63.058,94.8Z" transform="translate(-17.615 -30.256)" fill="#fff"/>
        <path id="패스_1321" data-name="패스 1321" d="M30.608,15.621v5.29l1.907,1.737c.007.8.044,1.825.152,3.019-.538.167-1.282.687-1.5,2.268a8.78,8.78,0,0,0,3.741,7.541,29.731,29.731,0,0,0,1.442,3.163,15.183,15.183,0,0,0,3.616,6.577c.187,1.278.459,4.083-.428,5.714l9.4,8.167,9.4-8.167c-.887-1.63-.614-4.436-.428-5.714a15.183,15.183,0,0,0,3.616-6.577,29.729,29.729,0,0,0,1.442-3.163,8.78,8.78,0,0,0,3.741-7.541c-.214-1.581-.958-2.1-1.5-2.268.108-1.195.145-2.221.152-3.019l1.907-1.737v-5.29l4-4.1a2.648,2.648,0,0,0,0-3.75C64.134.087,50.716-.056,48.946.007,47.176-.056,33.758.087,26.608,7.77a2.543,2.543,0,0,0,0,3.75ZM42.66,5.538h3.907a2.968,2.968,0,0,1,4.758,0h3.907a.506.506,0,0,1,.473.687l-.991,2.593a.507.507,0,0,1-.473.326H51.325a2.969,2.969,0,0,1-4.758,0H43.652a.508.508,0,0,1-.473-.326l-.991-2.593a.506.506,0,0,1,.473-.687M33.853,14.85H64.038v1.431a22.015,22.015,0,0,1-30.186,0Z" transform="translate(-8.574 0)" fill="#fff"/>
      </g>
    </g>
  </g>
</svg>
