<svg id="icon_RSR" xmlns="http://www.w3.org/2000/svg" xmlns:xlink="http://www.w3.org/1999/xlink" width="120" height="43.992" viewBox="0 0 120 43.992">
  <defs>
    <clipPath id="clip-path">
      <rect id="사각형_1623" data-name="사각형 1623" width="120" height="43.992" fill="none"/>
    </clipPath>
  </defs>
  <path id="패스_1345" data-name="패스 1345" d="M57.146,16.927h8.135L66.9,27.065H55.523ZM59.121,4.606h4.185l1.385,8.642H57.737ZM62.569,0l.443,2.766h-3.6L59.86,0H47.017L10.124,43.992H52.81l1.8-11.21H67.822l1.8,11.21H112.3L75.41,0Z" transform="translate(-1.214)" fill="#fff"/>
  <g id="그룹_1323" data-name="그룹 1323">
    <g id="그룹_1322" data-name="그룹 1322" clip-path="url(#clip-path)">
      <path id="패스_1346" data-name="패스 1346" d="M4.465,37.823a4.338,4.338,0,1,0,4.209,4.463,4.338,4.338,0,0,0-4.209-4.463" transform="translate(0 -4.534)" fill="#fff"/>
      <path id="패스_1347" data-name="패스 1347" d="M16.434,25.923l-.114,0a3.786,3.786,0,0,0-.108,7.57l.113,0a3.786,3.786,0,0,0,.109-7.57m-.109,5.81h-.062a2.026,2.026,0,0,1,.057-4.05h.062a2.026,2.026,0,0,1-.057,4.05" transform="translate(-1.503 -3.108)" fill="#fff"/>
      <path id="패스_1348" data-name="패스 1348" d="M35.87,7.447h-.084a2.843,2.843,0,0,0-.082,5.685h.084a2.843,2.843,0,0,0,.082-5.685m-.082,4.365h-.046a1.523,1.523,0,0,1,.043-3.045h.046a1.523,1.523,0,0,1-.043,3.046" transform="translate(-3.95 -0.893)" fill="#fff"/>
      <path id="패스_1349" data-name="패스 1349" d="M43.131.6A2.333,2.333,0,1,0,45.394,3,2.333,2.333,0,0,0,43.131.6" transform="translate(-4.883 -0.072)" fill="#fff"/>
      <path id="패스_1350" data-name="패스 1350" d="M26.987,15.811a3.246,3.246,0,1,0,3.15,3.34,3.246,3.246,0,0,0-3.15-3.34" transform="translate(-2.835 -1.895)" fill="#fff"/>
      <path id="패스_1351" data-name="패스 1351" d="M130.7,37.823a4.338,4.338,0,1,1-4.209,4.463,4.338,4.338,0,0,1,4.209-4.463" transform="translate(-15.165 -4.534)" fill="#fff"/>
      <path id="패스_1352" data-name="패스 1352" d="M115.209,29.818a3.786,3.786,0,0,0,3.782,3.674l.113,0a3.786,3.786,0,0,0-.108-7.57l-.114,0a3.786,3.786,0,0,0-3.673,3.9m1.759-.052a2.028,2.028,0,0,1,1.965-2.084h.062a2.026,2.026,0,0,1,.057,4.05h-.062a2.015,2.015,0,0,1-2.022-1.966" transform="translate(-13.812 -3.108)" fill="#fff"/>
      <path id="패스_1353" data-name="패스 1353" d="M96.944,10.372a2.843,2.843,0,0,0,2.84,2.76h.084a2.843,2.843,0,0,0-.081-5.685H99.7a2.842,2.842,0,0,0-2.758,2.925m1.319-.039a1.525,1.525,0,0,1,1.478-1.567h.047a1.523,1.523,0,0,1,.043,3.045h-.047a1.515,1.515,0,0,1-1.521-1.479" transform="translate(-11.623 -0.893)" fill="#fff"/>
      <path id="패스_1354" data-name="패스 1354" d="M92.58.6A2.333,2.333,0,1,1,90.317,3,2.333,2.333,0,0,1,92.58.6" transform="translate(-10.828 -0.072)" fill="#fff"/>
      <path id="패스_1355" data-name="패스 1355" d="M108.476,15.811a3.246,3.246,0,1,1-3.15,3.34,3.246,3.246,0,0,1,3.15-3.34" transform="translate(-12.628 -1.895)" fill="#fff"/>
    </g>
  </g>
</svg>
