<svg xmlns="http://www.w3.org/2000/svg" xmlns:xlink="http://www.w3.org/1999/xlink" width="67.535" height="56.076" viewBox="0 0 67.535 56.076">
  <defs>
    <clipPath id="clip-path">
      <rect id="사각형_991" data-name="사각형 991" width="67.535" height="56.076" fill="none"/>
    </clipPath>
  </defs>
  <g id="icon_dr" transform="translate(0 0)">
    <g id="그룹_708" data-name="그룹 708" transform="translate(0 0)" clip-path="url(#clip-path)">
      <path id="패스_959" data-name="패스 959" d="M38.789,14.976,20.933,22.341a.7.7,0,0,0,.112,1.33l8.121,1.841,1.841,8.121a.7.7,0,0,0,1.33.112L39.7,15.889a.7.7,0,0,0-.914-.914" transform="translate(3.327 2.421)" fill="#fff"/>
      <path id="패스_960" data-name="패스 960" d="M58.831,0c-.037,0-.072.009-.108.01S58.652,0,58.615,0H22.088C18.021,0,12.45,0,12.45,9.638V44.321H2.034A2.034,2.034,0,0,0,0,46.355a9.648,9.648,0,0,0,9.638,9.638H45.5a2.032,2.032,0,0,0,.547.084A8.182,8.182,0,0,0,52.2,53.719a8.957,8.957,0,0,0,2.294-6.1V11.672h11a2.034,2.034,0,0,0,2.034-2.034c0-5.585-3.66-9.638-8.7-9.638M9.638,51.924a5.578,5.578,0,0,1-5.185-3.536H36.871a9.606,9.606,0,0,0,1.561,3.536Zm39.617-1.009a3.921,3.921,0,0,1-2.559,1.05,1.989,1.989,0,0,0-.4-.041,5.576,5.576,0,0,1-5.57-5.57,2.034,2.034,0,0,0-2.034-2.034H16.519V9.638c0-5.57,1.4-5.57,5.57-5.57H51.731a11.1,11.1,0,0,0-1.3,5.57V47.683a5.034,5.034,0,0,1-1.175,3.232M54.72,7.6a4.139,4.139,0,0,1,3.895-3.536c.037,0,.072-.009.108-.01s.071.01.108.01A4.354,4.354,0,0,1,63.2,7.6Z" transform="translate(0 0)" fill="#fff"/>
    </g>
  </g>
</svg>
