<svg id="icon_MSR" xmlns="http://www.w3.org/2000/svg" xmlns:xlink="http://www.w3.org/1999/xlink" width="82.85" height="82.914" viewBox="0 0 82.85 82.914">
  <defs>
    <clipPath id="clip-path">
      <rect id="사각형_1631" data-name="사각형 1631" width="82.85" height="82.914" fill="none"/>
    </clipPath>
  </defs>
  <g id="그룹_1332" data-name="그룹 1332" clip-path="url(#clip-path)">
    <path id="패스_1393" data-name="패스 1393" d="M40.646,43.81c.123,1.387.16,5.438-1.112,7.514l-.664,1.084,2.167,1.328.664-1.083c1.225-2,1.507-4.917,1.539-6.9a17.554,17.554,0,0,0,7.469,3.111l.215.037.214-.037a17.548,17.548,0,0,0,7.491-3.128c.031,1.984.311,4.914,1.539,6.918l.664,1.083L63,52.408l-.664-1.084C61.061,49.248,61.1,45.2,61.221,43.81l.036-.412c7.632-8.223,7.552-22.349,7.549-22.538v-.043a34.45,34.45,0,0,0-.6-5.062A13.584,13.584,0,0,0,68.42,13.6C68.42.95,50.929,0,50.929,0S33.61.844,33.61,13.6a12.924,12.924,0,0,0,.14,1.669,34.051,34.051,0,0,0-.713,5.59c0,.189-.082,14.345,7.575,22.564ZM55.776,9.834l-1.083,2.607a9.257,9.257,0,0,0-7.4-.055l-1.317-2.5a12.088,12.088,0,0,1,9.8-.055m-18.224,13.2s.966.985,2.307-.62a15.037,15.037,0,0,1,22.312,0c1.342,1.6,2.307.62,2.307.62a10.356,10.356,0,0,0,1.788-2.117c0,.759-.073,22.589-15.344,25.4C35.458,43.468,35.575,21.124,35.577,20.94c.005-.1.015-.2.021-.3a10.445,10.445,0,0,0,1.954,2.389" transform="translate(-12.05)" fill="#fff"/>
    <path id="패스_1394" data-name="패스 1394" d="M75.835,94.676A5.826,5.826,0,0,0,72.4,90.383l-2.256-.825L66.1,93.6l-4.585,4.579a5.553,5.553,0,0,1-3.959,1.7h-.034a6.15,6.15,0,0,1-1.2-.121A5.606,5.606,0,0,1,51.8,95.22a6.145,6.145,0,0,1-.118-1.2v-.027a5.562,5.562,0,0,1,1.71-3.958l4.622-4.6.226-.226-5.351-1.957c-2.593,2.359-8.085,4.313-11.039,4.807l-2.981,7.2-2.982-7.2c-2.953-.494-8.446-2.448-11.039-4.807L5.342,90.383a5.825,5.825,0,0,0-3.434,4.293L0,108.317c9.469,4.069,28.821,4.81,37.033,4.938l-.008.023s.671.006,1.846,0c1.175.008,1.846,0,1.846,0l-.008-.023c8.213-.128,27.564-.869,37.033-4.938Z" transform="translate(0 -30.366)" fill="#fff"/>
    <path id="패스_1395" data-name="패스 1395" d="M113.679,65.251l-.239-.509-3.491,3.494-.168.171c-.128.129-.247.251-.373.368a1.066,1.066,0,0,1-.734.311,1.04,1.04,0,0,1-.732-.315c-.243-.236-.624-.615-.988-.978s-.74-.747-.975-.99a1.044,1.044,0,0,1-.314-.733,1.069,1.069,0,0,1,.313-.734c.118-.125.24-.245.37-.372l.171-.168,3.5-3.482-.508-.24a5.863,5.863,0,0,0-3.411-.123,6.748,6.748,0,0,0-5.471,6.631c0,.173,0,.348.017.523,0,.018,0,.036,0,.054,0,.067.006.125.01.215,0,0,.138,1.048-.045,1.23-.574.569-13.226,13.168-14.292,14.229a3,3,0,0,0-.962,2.188v0a3.617,3.617,0,0,0,.07.7,3.067,3.067,0,0,0,2.527,2.533,3.571,3.571,0,0,0,.7.072h0a3,3,0,0,0,2.19-.956c1.064-1.063,13.7-13.68,14.269-14.252.182-.183,1.229-.042,1.229-.042.091,0,.149.01.216.01.017,0,.036,0,.054,0,.174.013.35.018.523.018a6.748,6.748,0,0,0,6.645-5.454,5.858,5.858,0,0,0-.112-3.411M89.56,87.325a1.535,1.535,0,0,1-1.1.461,1.548,1.548,0,0,1-1.091-2.653,1.534,1.534,0,0,1,1.1-.449,1.568,1.568,0,0,1,1.538,1.542,1.534,1.534,0,0,1-.452,1.1" transform="translate(-31.136 -22.164)" fill="#fff"/>
  </g>
</svg>
