<svg width="96" height="96" viewBox="0 0 96 96" fill="none" xmlns="http://www.w3.org/2000/svg">
<g id="icons/refresh">
<path id="Union" fill-rule="evenodd" clip-rule="evenodd" d="M26.3712 26.3511C20.7152 31.9564 17.3642 40.0393 17.3947 47.9902C17.4049 51.0873 16.1762 54.1235 13.861 56.7636L11.9113 58.9672V48.0004C11.8808 38.4755 15.7294 29.1639 22.4922 22.462C29.1535 15.7499 38.4042 11.9014 47.8885 11.9014H48.1525C57.6164 11.9014 66.8671 15.7499 73.5386 22.4823L74.9703 23.9141V23.7617C74.9703 21.1114 76.1584 18.5119 78.4229 16.2475L80.4334 14.247V33.2561L61.3939 33.2968L63.4451 31.2862C65.7603 29.0217 68.4207 27.8337 71.1421 27.8337L69.6494 26.3511H69.6393C64.0746 20.7357 56.0323 17.3949 48.122 17.3949H47.9088C39.9782 17.3949 31.9359 20.7357 26.3712 26.3511ZM82.1492 39.2371L84.0887 37.0336L84.109 37.0437V48.0105C84.1395 57.5354 80.291 66.847 73.5281 73.5489C66.8668 80.261 57.6161 84.1095 48.1319 84.1095H47.8679C38.4039 84.1095 29.1532 80.261 22.4818 73.5286L22.4615 73.5083L21.05 72.0867V72.239C21.05 74.8893 19.8619 77.4888 17.5975 79.7533L15.5869 81.7537V62.7547L34.6265 62.7141L32.5753 64.7247C30.2601 66.9891 27.5996 68.1772 24.8782 68.1772L26.3709 69.6598C31.9355 75.2752 39.9779 78.616 47.8882 78.616H48.1014C56.032 78.616 64.0743 75.2752 69.639 69.6598C75.295 64.0545 78.6459 55.9716 78.6155 48.0105C78.6053 44.9134 79.834 41.8772 82.1492 39.2371Z" fill="#051766"/>
</g>
</svg>
