<svg id="icon_gsr_03" xmlns="http://www.w3.org/2000/svg" xmlns:xlink="http://www.w3.org/1999/xlink" width="54.87" height="59.991" viewBox="0 0 54.87 59.991">
  <defs>
    <clipPath id="clip-path">
      <rect id="사각형_738" data-name="사각형 738" width="54.87" height="59.991" fill="#fff"/>
    </clipPath>
  </defs>
  <g id="그룹_345" data-name="그룹 345" transform="translate(0 0)" clip-path="url(#clip-path)">
    <path id="패스_600" data-name="패스 600" d="M23.673,57.69l-1.321-.672L16.511,68.487a2.575,2.575,0,0,0-.893-.756l-5.054-2.553a2.6,2.6,0,0,0-3.5,1.15L.28,79.762a2.6,2.6,0,0,0,1.151,3.5L4.875,85a3.7,3.7,0,0,1,6.047-2.2l4.707-9.319Z" transform="translate(0 -28.845)" fill="#fff"/>
    <path id="패스_601" data-name="패스 601" d="M76.886,5.2a5.807,5.807,0,1,0-5.164,6.384A5.806,5.806,0,0,0,76.886,5.2" transform="translate(-33.037 0)" fill="#fff"/>
    <path id="패스_602" data-name="패스 602" d="M70.791,39.732c-7.885-2.228-12.456-10.426-12.5-10.516a3.721,3.721,0,0,0-4.148-2.09c-13.032,1.63-18,15.433-18.207,16.02a2.982,2.982,0,0,0,5.627,1.976c.031-.086,2.517-6.883,8.188-10.285L48.116,47.872a5.238,5.238,0,0,0,2.176,4.574c.1.071,7.428,6.9,9.071,16.9a3.479,3.479,0,0,0,3.795,2.9c.067-.007.135-.016.2-.027a3.479,3.479,0,0,0,2.869-4c-1.271-7.741-5.63-14.46-8.784-18.473l1.214-10.405A27.281,27.281,0,0,0,69.17,45.471a2.982,2.982,0,0,0,1.622-5.74" transform="translate(-18.093 -13.698)" fill="#fff"/>
    <path id="패스_603" data-name="패스 603" d="M49.367,79.676a7.171,7.171,0,0,1-1.389-1.255C45.767,86.5,38.2,93.6,38.087,93.7a3.119,3.119,0,0,0-.044,4.664,3.707,3.707,0,0,0,2.9.925,3.77,3.77,0,0,0,2.161-.964A48.879,48.879,0,0,0,53.361,84.21a28.712,28.712,0,0,0-3.994-4.534" transform="translate(-18.727 -39.673)" fill="#fff"/>
    <path id="패스_604" data-name="패스 604" d="M13.458,113.825a3.706,3.706,0,1,1,3.706-3.706,3.71,3.71,0,0,1-3.706,3.706m0-4.941a1.235,1.235,0,1,0,1.235,1.235,1.237,1.237,0,0,0-1.235-1.235" transform="translate(-4.933 -53.833)" fill="#fff"/>
    <rect id="사각형_737" data-name="사각형 737" width="24.971" height="1.977" transform="translate(8.882 53.614) rotate(-62.942)" fill="#fff"/>
  </g>
</svg>
