<svg width="96" height="96" viewBox="0 0 96 96" fill="none" xmlns="http://www.w3.org/2000/svg">
<g id="icons/notification" clip-path="url(#clip0_757_9952)">
<path id="Vector" d="M77.2627 62.5333C75.6689 59.9748 73.1773 58.1034 70.276 57.2857C67.8127 56.6249 65.2621 56.3494 62.7145 56.469H29.4442L32.2117 40.0002C32.7024 37.0136 33.727 34.1398 35.2363 31.5163C36.6114 29.1445 38.789 27.3423 41.3762 26.435C42.6643 25.9715 44.0057 25.6717 45.3686 25.5428C46.8773 25.3963 48.3967 25.3963 49.9055 25.5428C52.7288 25.7533 55.4346 26.7601 57.7089 28.4464C59.9861 30.2578 61.77 32.6139 62.896 35.297C63.5423 36.6947 64.0783 38.1408 64.499 39.6222C64.8922 40.8925 65.1644 42.1326 65.5123 43.539L66.828 49.5881C67.1607 51.1004 68.7183 52.2951 71.3648 53.0664L72.3932 53.3689L73.5576 53.7167L73.4064 53.0513V52.9L71.2438 43.0248C69.8374 36.7488 67.5992 28.8547 61.2174 24.0154C58.226 21.7774 54.6812 20.3971 50.9641 20.0229V14.125H45.2627V19.8868H44.8847C42.981 20.0681 41.1097 20.5003 39.3195 21.1723C37.4183 21.8361 35.6513 22.8348 34.1021 24.1212C32.5885 25.4154 31.2962 26.9478 30.276 28.6581C28.4205 31.8636 27.1602 35.3783 26.5557 39.0324L23.2136 58.8282L22.6843 62.125H62.654C63.8336 62.125 64.8922 62.125 65.8601 62.125C66.7979 62.1911 67.7258 62.3584 68.6276 62.6241C70.1856 63.0404 71.5364 64.0145 72.4234 65.3613C72.8267 66.0935 73.1124 66.8845 73.2703 67.7053H21.6711C20.3705 67.7053 19.085 68.9757 17.966 71.3651L17.5425 72.3027L17.0435 73.3613H35.6295C35.847 76.3525 37.1609 79.1582 39.3195 81.2403C41.7014 83.4777 44.8531 84.7124 48.121 84.6883C51.3825 84.6876 54.5224 83.45 56.9074 81.2252C59.084 79.1682 60.4203 76.377 60.6578 73.3915H79.138V70.6543C79.2591 67.8275 78.611 65.0208 77.2627 62.5333ZM53.0359 77.1269C51.6959 78.3697 49.9334 79.0563 48.1058 79.0475C46.285 79.0688 44.5274 78.3799 43.206 77.1269C42.1748 76.129 41.509 74.8134 41.3157 73.3915H54.9263C54.7399 74.8156 54.073 76.1334 53.0359 77.1269Z" fill="#051766"/>
</g>
<defs>
<clipPath id="clip0_757_9952">
<rect width="96" height="96" fill="white"/>
</clipPath>
</defs>
</svg>
