<svg xmlns="http://www.w3.org/2000/svg" xmlns:xlink="http://www.w3.org/1999/xlink" width="42.64" height="51.073" viewBox="0 0 42.64 51.073">
  <defs>
    <clipPath id="clip-path">
      <rect id="사각형_880" data-name="사각형 880" width="42.64" height="51.073" transform="translate(0 0)" fill="none"/>
    </clipPath>
  </defs>
  <g id="icon_csr_01" transform="translate(0 0)">
    <g id="그룹_528" data-name="그룹 528" clip-path="url(#clip-path)">
      <path id="패스_790" data-name="패스 790" d="M40.786,9.986A26.572,26.572,0,0,1,22.755.656,1.718,1.718,0,0,0,22.4.347,1.815,1.815,0,0,0,22.136.2L22.072.172a1.865,1.865,0,0,0-1.4-.064c-.048.018-.086.052-.132.073s-.06.035-.091.051a1.819,1.819,0,0,0-.358.236,1.573,1.573,0,0,0-.2.188A26.574,26.574,0,0,1,1.859,9.986,1.884,1.884,0,0,0,0,11.871V28.049a20.7,20.7,0,0,0,3.646,11.8C6.9,44.486,19.141,50.256,20.526,50.9a1.9,1.9,0,0,0,.793.175,1.859,1.859,0,0,0,.474-.068c.047-.012.09-.03.135-.045.062-.021.125-.035.185-.062,1.385-.643,13.627-6.413,16.879-11.054a20.7,20.7,0,0,0,3.647-11.8V11.871a1.89,1.89,0,0,0-1.853-1.885M38.87,24.653H23.2V6.456c.115.1.231.19.346.287q.254.213.507.419c.238.192.477.377.716.558.164.125.329.251.494.37.248.181.5.352.744.522.154.1.309.213.463.314.27.177.538.343.806.507.131.08.263.165.393.242.336.2.669.384,1,.563.062.033.125.071.187.1q.6.318,1.186.6c.068.032.135.06.2.092.318.149.633.292.944.425.121.052.238.1.357.147.255.1.509.208.758.3.132.051.262.1.393.145.23.084.459.167.683.243.134.045.265.088.4.13q.323.1.635.2c.13.039.257.076.384.112.2.058.4.113.6.164l.361.094c.192.048.379.092.563.135.11.025.221.051.328.074.187.041.364.077.54.112l.278.055c.19.035.368.066.543.095l.2.034c.234.037.456.069.662.1ZM19.435,6.441V24.653H3.769V13.6A30.331,30.331,0,0,0,19.435,6.441M6.068,36.645c-.065-.109-.12-.224-.181-.335-.139-.25-.278-.5-.4-.757-.069-.14-.127-.287-.192-.43-.106-.235-.215-.469-.31-.71-.063-.159-.116-.323-.175-.484-.083-.231-.169-.462-.243-.7-.054-.173-.1-.349-.147-.524-.064-.23-.13-.459-.185-.692-.042-.183-.076-.368-.112-.553-.046-.229-.094-.458-.131-.689-.03-.192-.051-.385-.075-.577-.028-.229-.058-.457-.077-.687-.017-.2-.025-.4-.035-.594-.008-.165-.014-.329-.018-.493H19.435V46.171l-.317-.162c-.625-.32-1.288-.667-1.975-1.037l-.384-.206c-.193-.1-.388-.213-.584-.321l-.42-.232-.575-.324-.447-.256-.563-.326-.459-.272c-.183-.109-.367-.218-.548-.328-.16-.1-.318-.195-.476-.293s-.344-.212-.513-.318c-.224-.142-.442-.284-.66-.426-.2-.132-.4-.264-.6-.4s-.384-.259-.569-.388c-.127-.088-.246-.176-.369-.264-.167-.12-.333-.24-.492-.359-.119-.089-.233-.177-.347-.266-.152-.117-.3-.235-.444-.351-.106-.086-.209-.171-.309-.256-.141-.12-.274-.238-.4-.356-.087-.079-.175-.158-.256-.236-.135-.128-.256-.254-.375-.379-.06-.064-.125-.129-.181-.191a5.868,5.868,0,0,1-.439-.546c-.235-.335-.457-.682-.665-1.037m29.838,1.037c-1.821,2.6-8.374,6.291-12.7,8.489V28.423H38.856a16.863,16.863,0,0,1-2.95,9.259" fill="#fff"/>
    </g>
  </g>
</svg>
