<svg xmlns="http://www.w3.org/2000/svg" xmlns:xlink="http://www.w3.org/1999/xlink" width="50" height="50.008" viewBox="0 0 50 50.008">
  <defs>
    <clipPath id="clip-path">
      <rect id="사각형_888" data-name="사각형 888" width="50" height="50.008" fill="none"/>
    </clipPath>
  </defs>
  <g id="icon_csr_09" transform="translate(0 0)">
    <g id="그룹_540" data-name="그룹 540" transform="translate(0 0)" clip-path="url(#clip-path)">
      <path id="패스_812" data-name="패스 812" d="M22.724,8.013a14.64,14.64,0,1,0,14.64,14.64,14.657,14.657,0,0,0-14.64-14.64m11.541,14.64A11.542,11.542,0,1,1,22.724,11.112,11.555,11.555,0,0,1,34.265,22.653" transform="translate(2.337 2.317)" fill="#fff"/>
      <path id="패스_813" data-name="패스 813" d="M46.354,27.121c.072-.719.11-1.441.11-2.15,0-.636-.032-1.292-.093-1.953l3.057-2.476a1.555,1.555,0,0,0,.443-1.827l-2.99-6.82a1.548,1.548,0,0,0-1.587-.917l-3.7.4a21.406,21.406,0,0,0-3-2.99l.353-4.134a1.557,1.557,0,0,0-1.008-1.586L30.953.1A1.546,1.546,0,0,0,29.192.6L26.839,3.646a21.138,21.138,0,0,0-3.669.009L20.811.6A1.547,1.547,0,0,0,19.05.1L12.061,2.671a1.554,1.554,0,0,0-1.006,1.587l.362,4.227a21.566,21.566,0,0,0-2.893,2.908L4.717,10.98a1.552,1.552,0,0,0-1.6.917L.13,18.715a1.553,1.553,0,0,0,.445,1.827l3.166,2.565c-.055.624-.084,1.25-.084,1.864,0,.679.035,1.37.1,2.06L.642,29.525A1.544,1.544,0,0,0,.165,31.3L2.85,38.236a1.571,1.571,0,0,0,1.6.984l4.265-.436a21.629,21.629,0,0,0,2.8,2.748L11.1,45.274a1.541,1.541,0,0,0,.914,1.59l6.808,3.011a1.556,1.556,0,0,0,1.831-.437l2.562-3.144a21.717,21.717,0,0,0,3.581.01l2.554,3.135a1.545,1.545,0,0,0,1.2.57,1.494,1.494,0,0,0,.627-.134l6.808-3.01a1.541,1.541,0,0,0,.915-1.591l-.407-3.648a21.67,21.67,0,0,0,2.9-2.831l4.176.427a1.584,1.584,0,0,0,1.583-.986l2.683-6.941a1.545,1.545,0,0,0-.476-1.769ZM35.7,44.489,31,46.563,28.671,43.7a1.558,1.558,0,0,0-1.388-.558,18.518,18.518,0,0,1-4.54-.014,1.54,1.54,0,0,0-1.4.558L19,46.563l-4.691-2.074L14.7,41.02a1.558,1.558,0,0,0-.61-1.412,18.423,18.423,0,0,1-3.468-3.4,1.545,1.545,0,0,0-1.381-.589l-3.92.4-1.85-4.779,2.9-2.323a1.546,1.546,0,0,0,.566-1.422,18.213,18.213,0,0,1-.024-4.86,1.534,1.534,0,0,0-.562-1.4l-2.9-2.353,2.059-4.7,3.553.387a1.578,1.578,0,0,0,1.394-.608,18.433,18.433,0,0,1,3.526-3.55,1.547,1.547,0,0,0,.6-1.364l-.333-3.875L19.055,3.4l2.2,2.841a1.553,1.553,0,0,0,1.425.588,17.881,17.881,0,0,1,4.672-.012,1.569,1.569,0,0,0,1.415-.59L30.947,3.4l4.811,1.773-.325,3.79a1.541,1.541,0,0,0,.614,1.372,18.419,18.419,0,0,1,3.625,3.616,1.543,1.543,0,0,0,1.4.606l3.424-.373,2.059,4.7-2.8,2.266A1.539,1.539,0,0,0,43.2,22.55a18.631,18.631,0,0,1,.164,2.421,18.948,18.948,0,0,1-.186,2.605A1.559,1.559,0,0,0,43.744,29l2.791,2.234-1.847,4.779-3.828-.389a1.591,1.591,0,0,0-1.364.589,18.389,18.389,0,0,1-3.563,3.474,1.554,1.554,0,0,0-.615,1.415Z" transform="translate(0 0)" fill="#fff"/>
      <path id="패스_814" data-name="패스 814" d="M26.312,19.8a1.4,1.4,0,0,1-1.975.128L22.9,18.5a1.409,1.409,0,0,1,.129-1.978l1.9-1.9a5.027,5.027,0,0,0-6.371,6.1,2.072,2.072,0,0,0-.226.192L14.7,24.545a1.538,1.538,0,0,0-.141,2.159l1.571,1.57a1.536,1.536,0,0,0,2.161-.141L21.919,24.5a1.734,1.734,0,0,0,.191-.226,5.025,5.025,0,0,0,6.1-6.368Z" transform="translate(4.099 4.16)" fill="#fff"/>
    </g>
  </g>
</svg>
