<svg width="96" height="96" viewBox="0 0 96 96" fill="none" xmlns="http://www.w3.org/2000/svg">
<g id="icons/log-out">
<path id="Union" fill-rule="evenodd" clip-rule="evenodd" d="M25.3073 77.4078H48.4938C50.8696 77.4078 53.1937 78.6632 55.2168 81.0287L56.8976 83.0104H25.3073C21.8213 83.0104 18.9785 80.1676 18.9785 76.6815V19.3911C18.9785 15.905 21.8213 13.0623 25.3073 13.0623L56.8976 13L55.2168 14.9816C53.1833 17.3472 50.8593 18.6026 48.4938 18.6026L25.3073 18.6648C24.9027 18.6648 24.5811 18.9864 24.5811 19.3911V76.6815C24.5811 77.0862 24.9027 77.4078 25.3073 77.4078ZM60.7105 22.7198L86.0218 48.0829L60.7105 73.28L60.6794 70.79C60.6587 67.8124 61.5509 65.3224 63.2836 63.6001L76.4559 50.5211H49.4065C45.08 50.4381 40.8366 49.3176 37.1327 47.2633L33.9164 45.4788H76.3937L63.2836 32.3998C61.5509 30.6775 60.6483 28.1875 60.6794 25.2098L60.7105 22.7198Z" fill="#051766"/>
</g>
</svg>
