<svg width="96" height="96" viewBox="0 0 96 96" fill="none" xmlns="http://www.w3.org/2000/svg">
<g id="icons/search" clip-path="url(#clip0_1882_15129)">
<path id="Combined-Shape" fill-rule="evenodd" clip-rule="evenodd" d="M58.1532 55.734L83 81L81.0346 80.5328L79.3146 80.1197C75.0588 79.0951 71.1629 76.9409 68.0225 73.879L67.6635 73.5217L54.193 59.8186C55.6568 58.6112 56.9858 57.2406 58.1532 55.734ZM38.2922 14C52.2379 14 63.5843 25.5617 63.5843 39.7746C63.5843 53.9864 52.2379 65.5481 38.2922 65.5481C24.3464 65.5481 13 53.9864 13 39.7746C13 25.5617 24.3464 14 38.2922 14ZM38.2922 19.1548C27.1354 19.1548 18.0584 28.4045 18.0584 39.7746C18.0584 51.1436 27.1354 60.3932 38.2922 60.3932C49.4489 60.3932 58.5259 51.1436 58.5259 39.7746C58.5259 28.4045 49.4489 19.1548 38.2922 19.1548Z" fill="#051766" stroke="#051766" stroke-width="0.2"/>
</g>
<defs>
<clipPath id="clip0_1882_15129">
<rect width="96" height="96" fill="white"/>
</clipPath>
</defs>
</svg>
