<svg xmlns="http://www.w3.org/2000/svg" xmlns:xlink="http://www.w3.org/1999/xlink" width="48.701" height="48.703" viewBox="0 0 48.701 48.703">
  <defs>
    <clipPath id="clip-path">
      <rect id="사각형_903" data-name="사각형 903" width="48.701" height="48.703" fill="none"/>
    </clipPath>
  </defs>
  <g id="icon_gsr_02" transform="translate(0 0)">
    <g id="그룹_561" data-name="그룹 561" transform="translate(0 0)" clip-path="url(#clip-path)">
      <path id="패스_844" data-name="패스 844" d="M17.358,24.98a1.826,1.826,0,0,1-1.205-.452l-5.368-4.679L13.2,17.08l3.992,3.478,7.027-7.985L26.972,15l-8.235,9.358a1.832,1.832,0,0,1-1.379.623" transform="translate(-0.731 -0.852)" fill="#fff"/>
      <path id="패스_845" data-name="패스 845" d="M36.289,38.152a1.858,1.858,0,0,1-1.319-.546l-4.746-4.747a1.864,1.864,0,0,1,2.635-2.636l4.747,4.747a1.864,1.864,0,0,1-1.317,3.183" transform="translate(-2.012 -2.011)" fill="#fffdfd"/>
      <path id="패스_846" data-name="패스 846" d="M45.856,50.99a5.1,5.1,0,0,1-3.631-1.5l-6.98-6.98a5.134,5.134,0,1,1,7.262-7.26l6.98,6.98a5.134,5.134,0,0,1-3.631,8.764m-6.98-13.519a1.4,1.4,0,0,0-.994,2.4l6.98,6.98a1.441,1.441,0,0,0,1.987,0,1.409,1.409,0,0,0,0-1.989l-6.98-6.98a1.4,1.4,0,0,0-.994-.411" transform="translate(-2.287 -2.287)" fill="#fffdfd"/>
      <path id="패스_847" data-name="패스 847" d="M18.071,36.141A18.071,18.071,0,1,1,36.142,18.07,18.092,18.092,0,0,1,18.071,36.141m0-32.412A14.342,14.342,0,1,0,32.413,18.07,14.358,14.358,0,0,0,18.071,3.729" transform="translate(0 0)" fill="#fffdfd"/>
    </g>
  </g>
</svg>
