<svg width="96" height="96" viewBox="0 0 96 96" fill="none" xmlns="http://www.w3.org/2000/svg">
<g id="icons/alert">
<g id="Vector">
<path d="M66.7399 48.1231C67.0683 49.6215 68.6283 50.8223 71.2351 51.6023L72.2511 51.8999L73.4211 52.2386L73.2774 51.5715L73.2466 51.4278L71.4198 43.0635C69.9111 44.295 68.1562 45.229 66.237 45.7832L66.7501 48.1231H66.7399Z" fill="#051766"/>
<path d="M77.157 61.1161C75.5765 58.4887 72.8363 56.6106 70.1679 55.8819C67.5303 55.0404 64.7388 55.0506 62.5425 55.0712H29.2391L31.9999 38.5991C32.6054 35.5407 33.4675 32.5234 34.9761 30.1218C36.4438 27.6895 38.4861 25.9448 41.1031 25.0314C42.386 24.5388 43.8331 24.2925 45.3212 24.1488C46.7067 23.9846 48.1641 24.0154 49.5188 24.118C50.699 22.1475 52.3411 20.4746 54.2808 19.2431C53.1314 18.9249 51.9716 18.6991 50.8119 18.576V12.7261H45.1673V18.4939C45.0441 18.5041 44.9107 18.5144 44.7876 18.5247C42.9505 18.7094 41.0518 19.0275 39.2045 19.7152C37.3674 20.3925 35.5303 21.3367 34.0012 22.6606C32.4822 23.9743 31.1378 25.5035 30.1628 27.1661C28.1102 30.481 27.1557 34.0526 26.4579 37.5317L23.1224 57.4214L22.5682 60.7055H62.5528C63.733 60.7055 64.8004 60.685 65.7548 60.7774C66.7401 60.8492 67.674 61.0237 68.5259 61.2803C70.2706 61.7832 71.4919 62.7376 72.3232 64.0205C72.7132 64.6979 72.9903 65.4881 73.1647 66.3605H21.5829C20.2795 66.3605 18.9967 67.6228 17.8883 70.0141L16.9646 72.0154H35.5303C35.7561 74.9198 37.0595 77.8139 39.2045 79.8358C41.565 82.1141 44.8389 83.3354 48.0204 83.3046C51.2019 83.3046 54.4348 82.0936 56.8055 79.846C58.971 77.8447 60.3257 74.9506 60.5515 72.0051H79.0249L79.0454 69.2341C79.0659 66.6376 78.6965 63.7639 77.157 61.1161ZM52.9364 75.7306C51.6432 76.9519 49.8472 77.6497 47.9999 77.6497C46.1628 77.6497 44.3873 76.9724 43.1147 75.7511C42.0679 74.7556 41.4316 73.4317 41.2263 72.0051H54.8556C54.64 73.4214 53.9935 74.7351 52.9364 75.7306Z" fill="#051766"/>
<path d="M62.1419 40.8262C63.1374 40.8262 64.1021 40.662 64.995 40.3643C67.0065 39.7075 68.6999 38.3733 69.8288 36.6286C70.7628 35.1918 71.3067 33.4881 71.3067 31.6511C71.3067 26.5914 67.2015 22.4862 62.1419 22.4862C61.7827 22.4862 61.4235 22.517 61.0643 22.558C58.7653 22.8249 56.723 23.9538 55.2657 25.5959C53.8391 27.2072 52.9668 29.3316 52.9668 31.6613C52.9668 36.721 57.0719 40.8262 62.1316 40.8262H62.1419Z" fill="#051766"/>
</g>
</g>
</svg>
