<svg xmlns="http://www.w3.org/2000/svg" width="46.254" height="40.995" viewBox="0 0 46.254 40.995">
  <g id="icon_csr_05" transform="translate(0 3)">
    <g id="그룹_537" data-name="그룹 537" transform="translate(0 0)">
      <path id="패스_791" data-name="패스 791" d="M16.722,0H2.518A2.517,2.517,0,0,0,0,2.518v14.2A2.518,2.518,0,0,0,2.518,19.24h14.2a2.518,2.518,0,0,0,2.517-2.518V2.518A2.517,2.517,0,0,0,16.722,0m-.376,11.339a.523.523,0,0,1-.523.523H12.384a.522.522,0,0,0-.522.522v3.44a.523.523,0,0,1-.523.522H7.9a.522.522,0,0,1-.523-.522v-3.44a.522.522,0,0,0-.523-.522H3.415a.523.523,0,0,1-.522-.523V7.9a.522.522,0,0,1,.522-.523H6.854a.522.522,0,0,0,.523-.522V3.415A.522.522,0,0,1,7.9,2.893h3.439a.523.523,0,0,1,.523.522v3.44a.522.522,0,0,0,.522.522h3.439a.522.522,0,0,1,.523.523Z" transform="translate(0 -3)" fill="#fff"/>
      <path id="패스_792" data-name="패스 792" d="M48.292,40.869H17.251V33.843a9.526,9.526,0,0,1,9.517-9.515H38.777a9.526,9.526,0,0,1,9.516,9.515Zm-27.839-3.2H45.09V33.843a6.321,6.321,0,0,0-6.314-6.314H26.768a6.321,6.321,0,0,0-6.315,6.314Z" transform="translate(-2.038 -2.875)" fill="#fff"/>
      <path id="패스_793" data-name="패스 793" d="M39.318,25.858s.362-7.653,9.332-9.332c0,0-.205,7.334-9.332,9.332" transform="translate(-4.646 -1.953)" fill="#fff"/>
      <path id="패스_794" data-name="패스 794" d="M30.993,34.9s.362-7.653,9.332-9.332c0,0-.205,7.334-9.332,9.332" transform="translate(-3.662 -3.022)" fill="#fff"/>
      <path id="패스_795" data-name="패스 795" d="M33.783,19.242a7.981,7.981,0,1,1,7.98-7.981,7.989,7.989,0,0,1-7.98,7.981m0-12.76a4.779,4.779,0,1,0,4.779,4.78,4.785,4.785,0,0,0-4.779-4.78" transform="translate(-3.049 -0.388)" fill="#fff"/>
    </g>
  </g>
</svg>
