<svg width="96" height="96" viewBox="0 0 96 96" fill="none" xmlns="http://www.w3.org/2000/svg">
<g id="icons/setting">
<path id="Union" fill-rule="evenodd" clip-rule="evenodd" d="M77.5866 52.6335C77.8455 51.0477 77.9802 49.4722 77.9802 47.9278C77.9802 46.3821 77.8453 44.8052 77.5859 43.218L84.9618 39.0375L74.7227 20.9453L67.3469 25.126C64.7431 22.9371 61.7761 21.215 58.6017 20.022V11.9097L56.641 13.5799C54.338 15.5509 53.1036 17.8125 53.0621 20.1155H53.0413V24.0783L55.0331 24.6593C58.7677 25.7589 62.2325 27.7818 65.0438 30.4998L66.5273 31.9416L72.6272 28.4872L77.4095 36.9315L71.3097 40.386L71.7765 42.3986C72.2122 44.2659 72.43 46.1227 72.43 47.907C72.43 49.6914 72.2122 51.5483 71.7765 53.4156L71.3097 55.4281L77.4095 58.8827L72.6272 67.3271L66.5273 63.8725L65.0334 65.3145C62.2221 68.0428 58.7573 70.0553 55.0227 71.155L53.0309 71.736V78.7383H43.3313V71.736L41.3395 71.155C37.6049 70.0553 34.14 68.0324 31.3287 65.3145L29.8453 63.8725L23.7454 67.3271L18.9631 58.8827L25.0629 55.4281L24.596 53.4156C24.1603 51.5483 23.9425 49.6914 23.9425 47.907C23.9425 46.1227 24.1603 44.2659 24.596 42.3986L25.0629 40.386L18.9631 36.9315L23.7454 28.4872L29.8453 31.9416L31.3287 30.4998C34.14 27.7714 37.6049 25.7589 41.3395 24.6593L43.3313 24.0783V17.0759H45.292C47.6054 17.0344 49.8668 15.7999 51.8379 13.4866L53.5081 11.5259H45.1986H37.802V20.0013C34.6276 21.1839 31.6503 22.9268 29.0465 25.1156L21.6707 20.9349L11.4316 39.0271L18.8075 43.2078C18.5481 44.795 18.4132 46.3717 18.4132 47.9174C18.4132 49.4631 18.5481 51.04 18.8075 52.6272L11.4316 56.8079L21.6707 74.8999L29.0465 70.7192C31.6503 72.9081 34.6276 74.6406 37.802 75.8336V84.3091H58.5809V75.8336C61.7553 74.651 64.7327 72.9081 67.3365 70.7192L74.7124 74.8999L84.9514 56.8079L77.5866 52.6335ZM48.1966 56.9633C43.2275 56.9633 39.1714 52.9072 39.1714 47.9277C39.1714 42.9482 43.2172 38.8921 48.1966 38.8921C53.1761 38.8921 57.222 42.9482 57.222 47.9277C57.222 52.9072 53.1657 56.9633 48.1966 56.9633ZM48.1966 51.4237C50.1262 51.4237 51.6926 49.8573 51.6926 47.9277C51.6926 45.9982 50.1262 44.4317 48.1966 44.4317C46.2671 44.4317 44.7006 45.9982 44.7006 47.9277C44.7006 49.8573 46.2671 51.4237 48.1966 51.4237Z" fill="#051766"/>
</g>
</svg>
