<svg width="96" height="96" viewBox="0 0 96 96" fill="none" xmlns="http://www.w3.org/2000/svg">
<g id="icons/faq">
<path id="Union" d="M78.9809 66.3088C82.2404 60.7543 84.0073 54.2961 83.987 48.0105C84.0276 38.4857 80.1689 29.1741 73.4264 22.4823C66.7549 15.7499 57.5042 11.9014 48.0403 11.9014C47.9489 11.9014 47.8575 11.9014 47.7763 11.9014C38.2921 11.9014 29.0414 15.7499 22.3801 22.462C15.6172 29.1639 11.7687 38.4755 11.7991 47.9801C11.7585 57.5049 15.6172 66.8165 22.3598 73.5083C29.0312 80.2407 38.2819 84.0892 47.7458 84.0892C47.8372 84.0892 47.9185 84.0892 48.0099 84.0892C54.1533 84.0892 60.2358 82.4645 65.6786 79.3877L84.2002 83.7947L78.9809 66.3088ZM76.229 76.2703L64.785 73.5489L63.8203 74.1277C58.9868 77.0624 53.5237 78.6058 47.9895 78.6058H47.7661C39.8558 78.6058 31.8135 75.265 26.2286 69.6293C20.5929 64.0342 17.2419 55.9513 17.2724 47.9801C17.2419 40.0291 20.5929 31.9462 26.2489 26.341C31.8135 20.7256 39.8558 17.3848 47.7865 17.3848H47.9997C55.91 17.3848 63.9523 20.7256 69.5373 26.3613C75.173 31.9564 78.5239 40.0393 78.4935 48.0105C78.5138 53.697 76.8078 59.5358 73.6803 64.4607L73.0101 65.5168L76.2189 76.2703H76.229Z" fill="#051766"/>
<g id="Group">
<path id="Vector" d="M32.1532 52.3063C34.4469 52.3063 36.3063 50.4469 36.3063 48.1532C36.3063 45.8594 34.4469 44 32.1532 44C29.8594 44 28 45.8594 28 48.1532C28 50.4469 29.8594 52.3063 32.1532 52.3063Z" fill="#102463"/>
<path id="Vector_2" d="M47.5228 52.3063C49.8165 52.3063 51.676 50.4469 51.676 48.1532C51.676 45.8594 49.8165 44 47.5228 44C45.2291 44 43.3696 45.8594 43.3696 48.1532C43.3696 50.4469 45.2291 52.3063 47.5228 52.3063Z" fill="#102463"/>
<path id="Vector_3" d="M62.9027 52.3063C65.1964 52.3063 67.0558 50.4469 67.0558 48.1532C67.0558 45.8594 65.1964 44 62.9027 44C60.6089 44 58.7495 45.8594 58.7495 48.1532C58.7495 50.4469 60.6089 52.3063 62.9027 52.3063Z" fill="#102463"/>
</g>
</g>
</svg>
