<svg xmlns="http://www.w3.org/2000/svg" xmlns:xlink="http://www.w3.org/1999/xlink" width="46.371" height="49.594" viewBox="0 0 46.371 49.594">
  <defs>
    <clipPath id="clip-path">
      <rect id="사각형_876" data-name="사각형 876" width="46.371" height="49.594" fill="none"/>
    </clipPath>
  </defs>
  <g id="icon_csr_02" transform="translate(0 0)">
    <g id="그룹_520" data-name="그룹 520" transform="translate(0 0)" clip-path="url(#clip-path)">
      <path id="패스_777" data-name="패스 777" d="M34.156,13.541A4.038,4.038,0,1,0,30.119,9.5a4.049,4.049,0,0,0,4.038,4.038M26.889,41.6l2.019-8.883,4.24,4.038V48.87h4.038V33.73l-4.24-4.038,1.211-6.057a14.784,14.784,0,0,0,11.1,5.047V24.644A9.933,9.933,0,0,1,36.579,19.8L34.56,16.57a4.159,4.159,0,0,0-3.431-2.019c-.606,0-1.01.2-1.616.2l-10.5,4.442v9.488h4.038V21.819l3.633-1.413-3.23,16.352-9.892-2.019-.808,4.038Z" transform="translate(1.112 0.476)" fill="#fff"/>
      <path id="패스_778" data-name="패스 778" d="M8.378,3.947H25.793a.5.5,0,0,0,.5-.5V.5a.5.5,0,0,0-.5-.5H8.378A8.387,8.387,0,0,0,0,8.378V41.216a8.387,8.387,0,0,0,8.378,8.378H25.793a.5.5,0,0,0,.5-.5V46.141a.5.5,0,0,0-.5-.5H8.378a4.435,4.435,0,0,1-4.43-4.429V8.378a4.435,4.435,0,0,1,4.43-4.43" transform="translate(0 0)" fill="#fff"/>
    </g>
  </g>
</svg>
