<svg xmlns="http://www.w3.org/2000/svg" xmlns:xlink="http://www.w3.org/1999/xlink" width="73.395" height="67.411" viewBox="0 0 73.395 67.411">
  <defs>
    <clipPath id="clip-path">
      <rect id="사각형_1627" data-name="사각형 1627" width="73.395" height="67.411" transform="translate(0 0)" fill="none"/>
    </clipPath>
  </defs>
  <g id="icon_foqa" transform="translate(0 0)">
    <g id="그룹_1327" data-name="그룹 1327" clip-path="url(#clip-path)">
      <path id="패스_1373" data-name="패스 1373" d="M72.809,20.308,59.057,6.556a2,2,0,0,0-1.414-.586H52.185a8.669,8.669,0,0,1-.341,4h4.97L69.395,22.551v40.86H26.832V24.366l-4,1.806V65.411a2,2,0,0,0,2,2H71.395a2,2,0,0,0,2-2V21.722a2,2,0,0,0-.586-1.414" fill="#fff"/>
      <path id="패스_1374" data-name="패스 1374" d="M7.791,24.806a4.672,4.672,0,0,0,5.52,1.277L45.538,11.532A4.679,4.679,0,1,0,41.687,3L30.971,7.842,16.224.091A.787.787,0,0,0,15.533.07L10.054,2.544a.789.789,0,0,0-.2,1.307l10.039,8.995-9.853,4.448L4.6,15.338a.793.793,0,0,0-.592.023l-3.544,1.6a.788.788,0,0,0-.192,1.314Z" fill="#fff"/>
      <path id="패스_1375" data-name="패스 1375" d="M38.775,51.581h0a2.436,2.436,0,0,1-2.436-2.436v-9.92a2.436,2.436,0,0,1,4.872,0v9.92a2.436,2.436,0,0,1-2.436,2.436" fill="#fff"/>
      <path id="패스_1376" data-name="패스 1376" d="M56.519,51.581h0a2.436,2.436,0,0,1-2.436-2.436V36.795a2.436,2.436,0,0,1,4.872,0v12.35a2.436,2.436,0,0,1-2.436,2.436" fill="#fff"/>
      <path id="패스_1377" data-name="패스 1377" d="M47.647,51.581h0a2.436,2.436,0,0,1-2.436-2.436v-17.2a2.436,2.436,0,1,1,4.872,0v17.2a2.436,2.436,0,0,1-2.436,2.436" fill="#fff"/>
    </g>
  </g>
</svg>
