<svg width="25" height="30" viewBox="0 0 25 30" fill="none" xmlns="http://www.w3.org/2000/svg">
<path id="Vector" fill-rule="evenodd" clip-rule="evenodd" d="M4.15578 -0.9375C3.07134 -0.9375 2.03132 -0.530075 1.2645 0.195147C0.497687 0.920369 0.0668948 1.90398 0.0668948 2.9296V29.0325C0.0667649 29.2004 0.112863 29.3654 0.200651 29.5113C0.28844 29.6573 0.414893 29.779 0.567562 29.8647C0.720231 29.9504 0.893854 29.9969 1.07134 29.9999C1.24883 30.0028 1.42406 29.9619 1.57978 29.8814L12.3336 24.3321L23.0873 29.8814C23.2431 29.9619 23.4183 30.0028 23.5958 29.9999C23.7733 29.9969 23.9469 29.9504 24.0996 29.8647C24.2522 29.779 24.3787 29.6573 24.4665 29.5113C24.5543 29.3654 24.6004 29.2004 24.6002 29.0325V2.9296C24.6002 1.90398 24.1694 0.920369 23.4026 0.195147C22.6358 -0.530075 21.5958 -0.9375 20.5113 -0.9375L4.15578 -0.9375Z" fill="#051766"/>
</svg>
