<?xml version="1.0" encoding="utf-8"?>
<!-- Generator: Adobe Illustrator 29.0.0, SVG Export Plug-In . SVG Version: 9.03 Build 54978)  -->
<svg version="1.2" baseProfile="tiny" id="Layer_1" xmlns="http://www.w3.org/2000/svg" xmlns:xlink="http://www.w3.org/1999/xlink"
	 x="0px" y="0px" viewBox="0 0 595.28 602.35" overflow="visible" xml:space="preserve">
<path fill="#CE2D1F" d="M36.97,249c0,71.82,58.2,130.02,130.03,130.02S297.02,320.83,297.02,249v-61.85
	c0-25.19,27.23-67.64,90.33-67.64c85.88,0,191.79,94.25,191.79,206.3c0,81.25-32.93,136.17-51.44,159.22
	c40.05-49.66,64.35-113.38,64.35-182.09C592.04,140.07,464.69,8,297.11,8C220.3,8,150.35,37.37,97.84,85.43
	C26.91,156.45,37.06,249,37.06,249H36.97z"/>
<path fill="#123479" d="M558.22,354.47c0-71.82-58.2-130.02-129.94-130.02s-130.02,58.2-130.02,130.02v61.85
	c0,25.19-27.23,67.64-90.33,67.64c-85.88,0-191.79-94.25-191.79-206.3c0-81.25,32.84-136.17,51.44-159.22
	C27.53,168.11,3.24,231.83,3.24,300.53c0,162.86,127.36,294.94,294.94,294.94c76.8,0,146.76-29.37,199.18-77.43
	c70.93-71.02,60.79-163.58,60.79-163.58L558.22,354.47z"/>
</svg>
