<?xml version="1.0" encoding="UTF-8"?>
<svg id="Layer_1" xmlns="http://www.w3.org/2000/svg" version="1.1" viewBox="0 0 283.8 33.9">
  <!-- Generator: Adobe Illustrator 29.0.0, SVG Export Plug-In . SVG Version: 2.1.0 Build 186)  -->
  <defs>
    <style>
      .st0 {
        fill: #ce2d1f;
      }

      .st1 {
        fill: #123479;
      }
    </style>
  </defs>
  <g id="responsive-footers">
    <path class="st0" d="M34.7,14.4c0,4.1,3.3,7.4,7.4,7.4s7.4-3.3,7.4-7.4v-3.5c0-1.4,1.5-3.8,5.1-3.8s10.8,5.3,10.8,11.7-1.9,7.7-2.9,9c2.3-2.8,3.6-6.4,3.6-10.3,0-9.2-7.2-16.7-16.7-16.7s-8.3,1.7-11.3,4.4c-4,4-3.4,9.2-3.4,9.2h0Z"/>
    <g>
      <path class="st1" d="M185.3,25.4s-.1-.6-1.1-.5c0,0-2.3.6-2.4-2.8s0-8.1,0-12.9c.1-1.7,1.2-3.3,2.9-3.9,0,0,.9-.2.7-1.4v-.5c-.1,0-.2-.5-.9-.4-2.9.3-5.8.3-8.7,0-.5,0-1,.5-1,1,0,0,0,.9.5,1.2,2.1.8,3.4,2.8,3.3,5.1v9.2s-5.7-8.4-9.3-14.9c-.4-1.1-1.6-1.8-2.7-1.6-3.7.2-7.3.2-11,0-.6,0-.9-.3-1.3-.1s-.6.6-.7,1.1c-.1.6.2,1.2.7,1.4,0,0,3,1.9,3,2.6v13.9s.2,4.9-1.2,4.9c0,0-1,0-2.9-3.3-3.3-6.3-6.2-12.8-8.8-19.5,0,0-.9-2.9-2.8-2.9s-1.5.3-2.2.7c-2.7,1.6-5.6,2.9-8.6,3.9-.3.1-.5.2-.6.5s-.2.5-.2.8c0,0,.2.9,1,1.1.9.2,1.7.7,2.3,1.4-.8,2.6-1.9,5.1-3.2,7.5-2.1,3.7-4.8,10.4-12.6,10.4h-3s-.9,0-.9-1.3v-8h2s3.4-.2,4.8,3.5c0,0,.3,1,1.4.8.6-.1.8-.2,1-.5.2-.3.3-.7.3-1.1-.2-2.5-.2-5.1,0-7.7,0-.5-.3-.9-.9-1.2-.6-.2-1.2-.2-1.4.1-1.1,1.4-2.9,2.2-4.7,2.2h-2.4v-7.3c2.5-.9,5.3-.7,7.7.5,1.3,1,2.4,2.2,3.3,3.7,0,0,.5,1.3,1.8.4,0,0,1,0,.5-1.7-.6-2-1.1-4-1.5-6,0-.4-.3-.9-.6-1.1s-.8-.4-1.2-.3c-7.4.8-14.9,1-22.3.6-.3,0-.6,0-.9.1-.2.2-.4.3-.5.7,0,.3,0,.6,0,.9,0,.3.3.5.5.7,0,0,2.9,1.4,2.9,6.7v8.8s.6,6.8-1.9,6.8c0,0-1.2,0-2.9-3.2l-1.9-3.5c-1.3-3.1-4.3-5-7.7-4.8,0,0,8.7-1.5,7.9-8,0,0,0-4.9-6.7-5.1h-.7c-7.2.5-14.5.4-21.7,0,0,0-.8-.1-1.2.5-.2.5-.3,1.3,0,1.7,2.3,1.4,3.1,4,3.1,6.7v10.2c0,2.9-.6,5.4-2.6,7.2,0,0-.8.4-.4,1.4,0,.2.2.5.4.6s.4.2.7,0c5-.4,10.1-.4,15.1,0,0,0,.7,0,.9-.4.2-.4.3-.6.3-.6,0,0,.4-.6-.6-1.3-1.1-.7-3-1.5-3-6.3v-4.6h.6s2.3,0,3.7,3.2c0,0,2.9,6.7,3.4,7.9.7,1.8,2.5,2.5,4.5,2.3,11.1-.9,22.2-.9,33.3,0,1,0,2-.4,2.4-1.4,0,0,2.7-7.3,3.3-8.4h8.8c.7,1.3,1.1,2.8,1.1,4.3s-.8,2.5-2.1,2.9c0,0-.9.2-.5,1.4,0,.2.2.5.4.6.2.2.5.2.8.2,7.8-.6,15.7-.6,23.5,0,0,0,.8,0,1.2-.8.1-.3.1-.6,0-.9,0-.3-.2-.5-.5-.6,0,0-3.6-.8-3.6-6.7v-9.7s2.7,3.9,5.9,9.6c3.2,5.7,4.9,8.2,4.9,8.2.4.8,1.1,1.5,2,1.8s1.9.2,2.7-.3c3-1.3,5.9-2.8,8.7-4.4.5-.3.6-.7.5-1.3v-.6h-.1l-.2-.2ZM85.6,10.4c0,.5,0,4.5-5.5,4.5v-4.9s0-3.6,2.9-3.6,2.5,3.5,2.5,4h0ZM133,18.2s1.9-4.3,2.7-5.6c1.3,1.8,2.3,3.6,3.1,5.7-1.9.2-3.8.2-5.7,0h-.1Z"/>
      <path class="st1" d="M243.6,28.6c-1.9-1.1-3-3.3-2.9-5.5v-12.3s0-4.5,2.6-5.9c.2-.1.4-.3.5-.6v-.8c-.2-.5-.6-.8-1.2-.8-4.9.4-9.9.4-14.8,0,0,0-.9,0-1.4.6-.3.6-.2,1.2.2,1.6,2.1,1.5,3.3,4.1,3.1,6.7v9.1c.1,0,.2,6.2-2.1,6.2,0,0-1.1,0-2.9-3.3-3.4-6.4-6.4-13-9-19.7,0,0-.9-3.1-2.7-3.1s-1.6.3-2.3.7c-2.7,1.7-5.6,3-8.6,4-.5.2-.9.8-.7,1.3,0,0,0,.7.9,1.1.9.2,1.8.7,2.4,1.4-.8,2.6-1.9,5.1-3.3,7.5-2.1,3.8-3.9,9.3-8.9,11.8-.3,0-.5.3-.6.6s-.1.6,0,.8c.3,1.1,1,.9,1,.9,2.9-.4,5.9-.4,8.8,0,.9,0,1.3-.9,1.3-.9.1-.4.2-1.1-.1-1.3l-.6-.4s-2.2-.7.9-6.8h8.8c.7,1.3,1.1,2.8,1.1,4.3s-.8,2.5-2.1,2.9c-.2,0-.4.4-.5.6,0,.3-.1.5,0,.9.1.3.2.5.5.6.2.2.4.2.8.2,1,0,17.6-.8,31.1,0,.5,0,1-.3,1.2-.8.3-.6.1-1.3-.4-1.7h-.1ZM204.2,18c.8-2,1.6-3.8,2.7-5.7,1.4,1.7,2.4,3.6,3.1,5.7-1.9.2-3.8.2-5.7,0h-.1Z"/>
      <path class="st1" d="M283.8,28.6s0-.9-1.1-1.1c-1-.3-2.1-1.4-3-3.1s-2.1-4.2-2.1-4.2c-1.4-2.8-4.3-4.5-7.5-4.4,0,0,7.9-1.3,7.9-7.3s-6.7-6.3-6.7-6.3h-1.7c-7,.7-14.1.7-21.2,0-.5,0-.9-.2-1.2,0-.3.3-.6.7-.5,1.2,0,0,.1.9.6,1.2,2.1,1.5,3.3,4.1,2.9,6.7v9.8s.3,6.1-3.1,7.6c0,0-.9.2-.5,1.5,0,0,.2.8,1.2.6,5.1-.3,10.2-.3,15.3,0,0,0,.7.2,1.1-.6,0,0,.6-1.2,0-1.6-1.8-1.1-3.1-3.1-3.1-5.2v-5.6h.7s2.3,0,3.9,3.4,2.7,6.7,2.7,6.7c.5,1.5,2,3.8,2.7,3.9,0,0,1.2.3,3.3,0,2.9-.2,5.7-1.1,8.4-2.4.3,0,.5-.2.6-.5.1-.2.2-.5.1-.8h0l.3.3ZM266.5,10.3c-.1,1-.4,4.5-5.5,4.5v-4.9s0-3.6,2.9-3.6,2.8,3.1,2.7,4.1h-.1Z"/>
      <path class="st1" d="M36.2,7.3s0-.2.2-.3c0,0,0,.2-.2.3Z"/>
      <path class="st1" d="M56.8,13c-4.1,0-7.4,3.3-7.4,7.4v3.5c0,1.4-1.5,3.8-5.1,3.8s-10.8-5.3-10.8-11.7,1.6-7.3,2.7-8.7c-2.1,2.8-3.4,6.2-3.4,10s.6,5.2,1.7,7.5c-.2,0-.8.2-1.9-1.1-1.3-1.5-9.1-10.6-9.1-10.6,2.9-3,6.2-5.5,9.9-7.3,0,0,.9-.4.7-1.5v-.7c0,0,0-.7-1.3-.5-3.8.4-7.6.4-11.5,0-.5,0-1.1.2-1.3.7,0,0-.5.8,0,1.3s2.3,1.7,2.3,3.5c0,0,.4,1.3-2.3,3.3-1.8,1.4-3.7,2.7-5.6,3.9v-4.7c-.1-2.3.9-4.5,2.7-5.8,0,0,.6-.3.5-1v-.5c-.1-.2-.2-.5-.5-.6-.2-.1-.5-.2-.7-.1-4.9.4-9.9.4-14.8.1-.4,0-.7,0-.9.4l-.2.5s-.4.9.2,1.3c2,1.3,2.9,3.6,2.9,5.9v10.9c0,2.5-1.1,5-3.1,6.7-.2.4-.3,1-.2,1.4l.2.5s0,.4,1.1.4c4.9-.5,9.8-.4,14.7,0,.3,0,.8,0,.9,0l.3-.6c.2-.5,0-1-.3-1.3-1.7-1.2-2.8-3.2-2.8-5.3v-5.1c3.3,3.3,6.1,7,8.4,11,.8,1.3,2.1,2.3,3.6,2.6,1.5.3,3.1,0,4.4-.8,1.9-1.1,3.8-2.3,5.6-3.6h0c3,3.6,7.6,5.9,12.9,5.9s8.3-1.7,11.3-4.4c4-4,3.4-9.2,3.4-9.2,0-4.1-3.3-7.4-7.4-7.4h.2Z"/>
    </g>
  </g>
</svg>