<svg width="230" height="35" viewBox="0 0 230 35" fill="none" xmlns="http://www.w3.org/2000/svg">
<g id="Horizontal/Koreanair">
<path id="Vector" d="M2.3091 26.0927L2.16929 26.1897C5.02183 31.4474 10.418 35 16.5763 35C25.7361 35 33.1549 27.1618 33.1549 17.5011C33.1549 14.8395 32.0522 12.5997 30.7489 10.9035C29.9731 9.86826 28.9687 9.02628 27.814 8.4433C26.6593 7.86032 25.3856 7.5521 24.0922 7.5427C22.0627 7.52465 19.9633 8.21937 18.484 9.54566C16.7951 11.0772 16.4207 13.0463 15.9833 16.2403C15.5007 19.7409 12.6842 22.1567 9.06275 22.1567C4.37465 22.1567 1.47024 19.2673 1.66192 14.8486C1.67629 14.5461 1.70866 14.2449 1.75888 13.9463C2.64283 8.73139 8.24871 3.34504 16.6823 3.3676C22.3423 3.3676 26.6042 4.63524 30.8458 8.91409L30.9856 8.81936C28.1331 3.55255 22.7437 0 16.5763 0C7.42789 0 0 7.84043 0 17.5011C0 20.1605 1.10268 22.4003 2.40606 24.0987C3.18229 25.1333 4.18685 25.9747 5.34147 26.5572C6.49609 27.1398 7.7696 27.4478 9.06275 27.4573C11.0922 27.4844 13.1916 26.7942 14.6709 25.4543C16.3576 23.9228 16.7342 21.9537 17.1716 18.7597C17.6542 15.2613 20.4797 12.8569 24.0922 12.8569C28.7893 12.8569 31.6937 15.744 31.502 20.1627C31.4866 20.465 31.4542 20.7663 31.4051 21.065C30.5031 26.2799 24.922 31.6662 16.4726 31.6437C10.8239 31.6414 6.56198 30.3715 2.3091 26.0927Z" fill="white"/>
<path id="Vector_2" d="M47.3096 7.5788H51.2558V27.428H47.3096V7.5788ZM64.3437 26.131C64.7783 26.6011 65.2521 27.0335 65.7598 27.4235H63.0651C62.2113 27.4439 61.3637 27.2728 60.5846 26.9227C59.7805 26.507 59.0782 25.9185 58.5281 25.1995L51.8398 16.8335L60.4809 7.58556H64.9255L56.2573 16.6666L62.2871 23.783C63.1395 24.801 63.825 25.5837 64.3437 26.131Z" fill="white"/>
<path id="Vector_3" d="M70.8176 26.4648C69.2389 25.6347 67.9248 24.3781 67.0247 22.8378C66.0904 21.2168 65.6149 19.3719 65.6492 17.5011C65.6149 15.6303 66.0904 13.7854 67.0247 12.1644C67.9248 10.6242 69.2389 9.36754 70.8176 8.5374C72.4925 7.68808 74.3439 7.24548 76.2217 7.24548C78.0995 7.24548 79.9508 7.68808 81.6257 8.5374C83.2074 9.37063 84.522 10.6332 85.4186 12.1802C86.3496 13.7976 86.825 15.6372 86.7941 17.5034C86.825 19.3688 86.3496 21.2077 85.4186 22.8243C84.5233 24.3701 83.2102 25.6319 81.6302 26.4648C79.9553 27.3141 78.104 27.7567 76.2262 27.7567C74.3484 27.7567 72.497 27.3141 70.8221 26.4648H70.8176ZM79.6007 23.81C80.5944 23.2406 81.3965 22.3888 81.9053 21.3627C82.4631 20.289 82.7412 19.0018 82.7397 17.5011C82.7382 16.0004 82.4601 14.7125 81.9053 13.6373C81.3965 12.6118 80.5943 11.7607 79.6007 11.1922C78.5595 10.644 77.4006 10.3575 76.2239 10.3575C75.0473 10.3575 73.8883 10.644 72.8471 11.1922C71.8535 11.7607 71.0514 12.6118 70.5425 13.6373C69.9863 14.7109 69.7082 15.9989 69.7082 17.5011C69.7082 19.0033 69.9863 20.2905 70.5425 21.3627C71.0483 22.3872 71.8464 23.2389 72.8358 23.81C73.8775 24.3567 75.0363 24.6424 76.2126 24.6424C77.389 24.6424 78.5478 24.3567 79.5895 23.81H79.6007Z" fill="white"/>
<path id="Vector_4" d="M108.717 27.4235H106.21C105.319 27.4507 104.434 27.27 103.625 26.8957C102.856 26.4873 102.191 25.9068 101.682 25.1995L95.6856 17.1425H97.4896C98.9718 17.1425 100.093 16.8598 100.852 16.2944C101.611 15.729 101.991 14.902 101.991 13.8133C101.991 12.7396 101.615 11.9426 100.863 11.4223C100.111 10.902 98.9621 10.6396 97.4152 10.6351H94.9347V27.4235H90.9907V7.5743H98.2066C99.616 7.54507 101.017 7.79021 102.333 8.29609C103.417 8.70925 104.357 9.42867 105.039 10.3667C105.678 11.2941 106.008 12.3989 105.984 13.5245C106.008 14.7846 105.601 16.0151 104.83 17.0117C103.993 18.0517 102.867 18.8208 101.594 19.2222L105.233 23.7807C106.262 25.1149 107.43 26.336 108.717 27.4235Z" fill="white"/>
<path id="Vector_5" d="M124.222 24.3108V27.4235H111.17V7.57428H123.954V10.6915H115.108V15.638H122.526V18.6966H115.108V24.3108H124.222Z" fill="white"/>
<path id="Vector_6" d="M147.227 27.4235H144.867C144.177 27.4494 143.497 27.2594 142.92 26.8799C142.402 26.519 141.939 25.8754 141.531 24.9491L140.866 23.3927H131.916L130.164 27.4235H126.443L135.558 7.57428H137.725L144.81 22.9709C145.811 25.1423 146.617 26.6265 147.227 27.4235ZM139.561 20.3905L136.404 13.0824L133.224 20.3905H139.561Z" fill="white"/>
<path id="Vector_7" d="M167.567 7.57879V27.428H165.4L153.284 14.3591V27.4235H149.902V7.57428H152.069L164.185 20.6364V7.57879H167.567Z" fill="white"/>
<path id="Vector_8" d="M198.966 27.4235H196.603C195.914 27.4494 195.234 27.2593 194.659 26.8799C194.14 26.519 193.677 25.8754 193.27 24.9491L192.593 23.3927H183.654L181.905 27.4235H178.182L187.294 7.57428H189.463L196.548 22.9709C197.547 25.1423 198.352 26.6265 198.966 27.4235ZM191.299 20.3905L188.128 13.0824L184.971 20.3905H191.299Z" fill="white"/>
<path id="Vector_9" d="M201.633 7.5788H205.577V27.428H201.633V7.5788Z" fill="white"/>
<path id="Vector_10" d="M229.25 27.4234H226.749C225.859 27.4502 224.974 27.2695 224.165 26.8956C223.396 26.4866 222.731 25.9063 222.221 25.1994L216.219 17.1425H218.023C219.503 17.1425 220.624 16.8598 221.385 16.2944C222.146 15.729 222.525 14.9019 222.524 13.8132C222.524 12.7396 222.148 11.9426 221.396 11.4223C220.644 10.902 219.491 10.6426 217.937 10.6441H215.457V27.4325H211.517V7.58327H218.733C220.142 7.55404 221.544 7.79918 222.86 8.30506C223.943 8.71788 224.884 9.43736 225.566 10.3757C226.204 11.3031 226.534 12.4078 226.51 13.5335C226.534 14.7932 226.128 16.0233 225.358 17.0207C224.52 18.0603 223.393 18.8293 222.12 19.2311L225.76 23.7897C226.791 25.1211 227.961 26.3391 229.25 27.4234Z" fill="white"/>
</g>
</svg>
