<svg width="524" height="80" viewBox="0 0 524 80" fill="none" xmlns="http://www.w3.org/2000/svg">
<g clip-path="url(#clip0_1756_7375)">
<path d="M5.27794 59.6404L4.95837 59.8621C11.4785 71.8799 23.8126 80 37.8888 80C58.8253 80 75.7827 62.0842 75.7827 40.0026C75.7827 33.9189 73.2623 28.7994 70.2831 24.9223C68.51 22.556 66.2142 20.6315 63.5749 19.299C60.9356 17.9665 58.0242 17.262 55.0678 17.2404C50.429 17.1992 45.6304 18.7871 42.2493 21.8187C38.3887 25.3193 37.5331 29.8202 36.5332 37.1206C35.4302 45.1221 28.9926 50.6438 20.7149 50.6438C9.99921 50.6438 3.36056 44.0394 3.79867 33.9396C3.83151 33.2483 3.90552 32.5597 4.0203 31.8773C6.04076 19.9575 18.8542 7.64581 38.131 7.69736C51.0681 7.69736 60.8096 10.5948 70.5048 20.3751L70.8243 20.1585C64.3042 8.12013 51.9856 0 37.8888 0C16.978 0 0 17.921 0 40.0026C0 46.0811 2.52042 51.2006 5.49957 55.0828C7.2738 57.4476 9.56994 59.3707 12.2091 60.7023C14.8482 62.0338 17.7591 62.7379 20.7149 62.7596C25.3537 62.8214 30.1523 61.2438 33.5334 58.1814C37.3888 54.6807 38.2496 50.1798 39.2495 42.8794C40.3525 34.883 46.8107 29.3871 55.0678 29.3871C65.8041 29.3871 72.4428 35.9863 72.0046 46.0862C71.9694 46.7773 71.8954 47.4658 71.783 48.1485C69.7213 60.0683 56.9646 72.38 37.6517 72.3284C24.7403 72.3233 14.9988 69.4206 5.27794 59.6404Z" fill="white"/>
<path d="M108.136 17.323H117.156V62.6926H108.136V17.323ZM147.071 59.7281C148.064 60.8026 149.147 61.7909 150.308 62.6823H144.148C142.197 62.729 140.259 62.338 138.479 61.5377C136.641 60.5874 135.036 59.2423 133.778 57.5988L118.491 38.4766L138.242 17.3385H148.401L128.588 38.0951L142.37 54.3611C144.318 56.688 145.885 58.477 147.071 59.7281Z" fill="white"/>
<path d="M161.869 60.491C158.26 58.5935 155.257 55.7212 153.199 52.2007C151.064 48.4955 149.977 44.2787 150.055 40.0025C149.977 35.7263 151.064 31.5094 153.199 27.8042C155.257 24.2838 158.26 21.4114 161.869 19.514C165.697 17.5727 169.929 16.561 174.221 16.561C178.513 16.561 182.745 17.5727 186.573 19.514C190.188 21.4185 193.193 24.3045 195.242 27.8403C197.37 31.5374 198.457 35.7422 198.386 40.0076C198.457 44.2715 197.371 48.4747 195.242 52.1698C193.196 55.703 190.195 58.5872 186.583 60.491C182.755 62.4323 178.523 63.4439 174.231 63.4439C169.939 63.4439 165.707 62.4323 161.879 60.491H161.869ZM181.944 54.4228C184.216 53.1213 186.049 51.1744 187.212 48.8289C188.487 46.3748 189.123 43.4327 189.119 40.0025C189.116 36.5723 188.48 33.6284 187.212 31.1709C186.049 28.8268 184.215 26.8815 181.944 25.5822C179.565 24.3291 176.915 23.6743 174.226 23.6743C171.537 23.6743 168.887 24.3291 166.508 25.5822C164.237 26.8815 162.403 28.8268 161.24 31.1709C159.969 33.625 159.333 36.5688 159.333 40.0025C159.333 43.4361 159.969 46.3783 161.24 48.8289C162.396 51.1708 164.22 53.1173 166.482 54.4228C168.863 55.6724 171.511 56.3253 174.2 56.3253C176.889 56.3253 179.538 55.6724 181.919 54.4228H181.944Z" fill="white"/>
<path d="M248.496 62.6823H242.764C240.729 62.7445 238.706 62.3315 236.858 61.4759C235.098 60.5424 233.578 59.2157 232.415 57.5989L218.71 39.1829H222.833C226.221 39.1829 228.783 38.5367 230.518 37.2444C232.253 35.9521 233.121 34.0617 233.121 31.5732C233.121 29.1191 232.262 27.2975 230.544 26.1082C228.826 24.919 226.199 24.3192 222.663 24.3089H216.993V62.6823H207.979V17.3127H224.472C227.693 17.2459 230.897 17.8062 233.904 18.9625C236.381 19.9069 238.53 21.5513 240.089 23.6954C241.548 25.8151 242.304 28.3403 242.249 30.9133C242.304 33.7935 241.373 36.606 239.61 38.8839C237.697 41.2611 235.123 43.019 232.214 43.9364L240.533 54.356C242.885 57.4055 245.554 60.1966 248.496 62.6823Z" fill="white"/>
<path d="M283.936 55.5676V62.6823H254.104V17.3127H283.323V24.4378H263.103V35.7441H280.06V42.7352H263.103V55.5676H283.936Z" fill="white"/>
<path d="M336.52 62.6823H331.123C329.547 62.7416 327.992 62.3072 326.675 61.4398C325.49 60.6149 324.431 59.1439 323.5 57.0266L321.98 53.4692H301.523L297.518 62.6823H289.013L309.847 17.3127H314.8L330.994 52.5051C333.283 57.4683 335.125 60.8607 336.52 62.6823ZM318.995 46.6071L311.779 29.9028L304.512 46.6071H318.995Z" fill="white"/>
<path d="M383.011 17.3231V62.6927H378.058L350.364 32.8209V62.6823H342.633V17.3127H347.586L375.28 47.169V17.3231H383.011Z" fill="white"/>
<path d="M454.779 62.6823H449.377C447.803 62.7416 446.249 62.3072 444.934 61.4398C443.748 60.6149 442.69 59.1439 441.759 57.0266L440.213 53.4692H419.781L415.782 62.6823H407.272L428.1 17.3127H433.059L449.253 52.5051C451.535 57.4683 453.377 60.8607 454.779 62.6823ZM437.254 46.6071L430.007 29.9028L422.791 46.6071H437.254Z" fill="white"/>
<path d="M460.876 17.323H469.891V62.6926H460.876V17.323Z" fill="white"/>
<path d="M524 62.6822H518.284C516.248 62.7433 514.226 62.3303 512.377 61.4758C510.619 60.5409 509.098 59.2144 507.934 57.5987L494.213 39.1828H498.337C501.721 39.1828 504.283 38.5366 506.022 37.2443C507.76 35.9519 508.628 34.0615 508.625 31.5731C508.625 29.119 507.766 27.2973 506.047 26.1081C504.329 24.9189 501.694 24.326 498.141 24.3294H492.471V62.7028H483.467V17.3332H499.96C503.182 17.2664 506.385 17.8267 509.393 18.983C511.87 19.9266 514.019 21.5712 515.578 23.7159C517.037 25.8356 517.792 28.3608 517.737 30.9338C517.792 33.8131 516.863 36.6248 515.103 38.9044C513.187 41.2808 510.613 43.0385 507.702 43.9569L516.021 54.3765C518.379 57.4196 521.054 60.2038 524 62.6822Z" fill="white"/>
</g>
<defs>
<clipPath id="clip0_1756_7375">
<rect width="524" height="80" fill="white"/>
</clipPath>
</defs>
</svg>
