<svg width="2246" height="2370" viewBox="0 0 2246 2370" fill="none" xmlns="http://www.w3.org/2000/svg">
<g clip-path="url(#clip0_1861_6053)">
<path d="M156.651 1766.85L147.182 1773.41C340.392 2129.44 705.889 2370.15 1123.01 2370.15C1743.42 2370.15 2245.77 1839.24 2245.77 1185.08C2245.77 1005 2171.08 853.334 2082.8 738.324C1965.5 585.436 1798.41 511.97 1631.93 510.748C1494.46 509.526 1352.27 555.805 1252.07 646.378C1137.67 750.085 1112.17 883.423 1082.69 1099.7C1050.16 1336.74 859.236 1500.17 613.942 1500.17C296.405 1500.17 99.6809 1304.67 112.663 1005.46C113.885 984.687 115.565 963.915 119.231 943.907C179.104 590.782 558.804 226.354 1130.04 227.576C1513.4 227.576 1801.31 313.566 2089.37 603.306L2098.84 596.738C1905.78 240.559 1540.74 0 1123.01 0C503.361 0 0.25 530.909 0.25 1185.08C0.25 1365.15 74.9378 1516.82 163.219 1631.83C279.909 1784.72 447.613 1857.57 614.095 1859.4C751.557 1861.24 893.754 1814.35 993.948 1723.78C1108.35 1620.07 1133.85 1486.73 1163.33 1270.46C1195.87 1033.41 1387.24 869.983 1632.08 869.983C1950.23 869.983 2146.95 1065.48 2133.97 1364.69C2132.75 1385.47 2131.07 1406.24 2127.4 1426.25C2066.31 1779.37 1688.29 2143.8 1115.98 2142.58C732.618 2142.58 444.711 2056.59 156.651 1766.85Z" fill="#DDF1FB"/>
</g>
<defs>
<clipPath id="clip0_1861_6053">
<rect width="2245.67" height="2370" fill="white" transform="translate(0.25)"/>
</clipPath>
</defs>
</svg>
