<svg width="165" height="165" viewBox="0 0 165 165" fill="none" xmlns="http://www.w3.org/2000/svg">
<g clip-path="url(#clip0_942_46102)">
<g clip-path="url(#clip1_942_46102)">
<circle cx="83" cy="80" r="72" fill="white"/>
<path d="M159 77.5C159 120.302 124.302 155 81.5 155C38.6979 155 4 120.302 4 77.5C4 34.6979 38.6979 0 81.5 0C124.302 0 159 34.6979 159 77.5ZM15.625 77.5C15.625 113.882 45.1182 143.375 81.5 143.375C117.882 143.375 147.375 113.882 147.375 77.5C147.375 41.1182 117.882 11.625 81.5 11.625C45.1182 11.625 15.625 41.1182 15.625 77.5Z" fill="#F7F7F7"/>
<g filter="url(#filter0_d_942_46102)">
<path d="M136.326 27.6741C138.669 25.3309 138.683 21.5126 136.171 19.3515C122.114 7.25892 104.234 0.381909 85.5707 0.0154205C64.9011 -0.390474 44.877 7.221 29.6959 21.2542C14.5149 35.2874 5.35581 54.6527 4.13875 75.2904C2.92169 95.928 9.74115 116.236 23.1675 131.956C36.5939 147.676 55.5847 157.588 76.1586 159.615C96.7326 161.641 117.292 155.624 133.528 142.825C149.763 130.026 160.413 111.44 163.246 90.961C165.803 72.4705 161.808 53.7344 152.063 37.9591C150.322 35.1399 146.548 34.5561 143.867 36.5039C141.186 38.4516 140.618 42.1922 142.322 45.0342C150.264 58.2809 153.491 73.8993 151.359 89.3168C148.951 106.724 139.898 122.523 126.098 133.402C112.298 144.281 94.8227 149.395 77.3348 147.673C59.847 145.95 43.7048 137.525 32.2924 124.162C20.88 110.8 15.0834 93.5388 16.1179 75.9968C17.1524 58.4548 24.9377 41.9943 37.8415 30.0661C50.7454 18.1378 67.766 11.6681 85.3351 12.0131C100.896 12.3187 115.818 17.9494 127.659 27.8662C130.199 29.9938 133.983 30.0172 136.326 27.6741Z" fill="#02C27F"/>
</g>
</g>
<path d="M61.1012 66V51.72H64.0212L69.6212 62.08L74.8812 51.72H77.8012V66H75.1212V56.28L70.1412 66H68.7612L63.5012 56.26V66H61.1012ZM85.8988 66.24C85.1255 66.24 84.3722 66.16 83.6388 66C82.9055 65.8267 82.2722 65.5933 81.7388 65.3C81.0855 64.94 80.6655 64.48 80.4788 63.92C80.3055 63.36 80.2188 62.6533 80.2188 61.8C81.0588 62.48 81.9388 63.0267 82.8588 63.44C83.7788 63.84 84.7455 64.04 85.7588 64.04C86.7322 64.04 87.4122 63.8733 87.7988 63.54C88.1988 63.1933 88.3988 62.7467 88.3988 62.2C88.3988 61.76 88.2655 61.38 87.9988 61.06C87.7455 60.7267 87.2722 60.4733 86.5788 60.3L84.3588 59.76C83.0655 59.44 82.0988 58.9333 81.4588 58.24C80.8188 57.5333 80.4988 56.6867 80.4988 55.7C80.4988 54.82 80.7188 54.0667 81.1588 53.44C81.6122 52.8133 82.2455 52.3333 83.0588 52C83.8855 51.6533 84.8522 51.48 85.9588 51.48C86.5455 51.48 87.0855 51.5267 87.5788 51.62C88.0722 51.7 88.4788 51.8 88.7988 51.92C89.6255 52.2267 90.1588 52.6333 90.3988 53.14C90.6522 53.6467 90.7788 54.2933 90.7788 55.08C90.1922 54.6933 89.4788 54.3667 88.6388 54.1C87.7988 53.82 86.9455 53.68 86.0788 53.68C85.1855 53.68 84.5055 53.8333 84.0388 54.14C83.5855 54.4333 83.3588 54.8333 83.3588 55.34C83.3588 55.7933 83.5388 56.1733 83.8988 56.48C84.2588 56.7867 84.8255 57.04 85.5988 57.24L87.3188 57.68C88.7055 58.0267 89.7122 58.5333 90.3388 59.2C90.9655 59.8533 91.2788 60.7333 91.2788 61.84C91.2788 62.8 91.0522 63.6067 90.5988 64.26C90.1588 64.9133 89.5322 65.4067 88.7188 65.74C87.9188 66.0733 86.9788 66.24 85.8988 66.24ZM93.748 66V51.72H98.948C100.095 51.72 101.088 51.8933 101.928 52.24C102.768 52.5867 103.415 53.08 103.868 53.72C104.321 54.36 104.548 55.12 104.548 56C104.548 56.9733 104.268 57.82 103.708 58.54C103.148 59.2467 102.375 59.7667 101.388 60.1L104.008 63.38C104.555 64.0733 105.028 64.62 105.428 65.02C105.828 65.4067 106.188 65.7333 106.508 66H104.708C103.975 66 103.355 65.8733 102.848 65.62C102.341 65.3667 101.875 64.96 101.448 64.4L97.128 58.6H98.428C100.588 58.6 101.668 57.8 101.668 56.2C101.668 54.68 100.568 53.92 98.368 53.92H96.588V66H93.748Z" fill="#222222"/>
<path d="M59.1725 106.336C58.3139 106.336 57.5299 106.252 56.8205 106.084C56.1112 105.935 55.5699 105.72 55.1965 105.44C54.8419 105.179 54.5992 104.815 54.4685 104.348C54.3379 103.863 54.2725 103.088 54.2725 102.024C54.8325 102.397 55.5512 102.705 56.4285 102.948C57.3245 103.191 58.2019 103.312 59.0605 103.312C62.3832 103.312 64.2499 101.277 64.6605 97.208C63.4472 98.272 61.8979 98.804 60.0125 98.804C58.6499 98.804 57.4645 98.5427 56.4565 98.02C55.4485 97.4973 54.6645 96.7693 54.1045 95.836C53.5632 94.884 53.2925 93.764 53.2925 92.476C53.2925 91.0573 53.5912 89.844 54.1885 88.836C54.8045 87.8093 55.6539 87.0253 56.7365 86.484C57.8379 85.9427 59.1259 85.672 60.6005 85.672C63.2325 85.672 65.2205 86.484 66.5645 88.108C67.9272 89.732 68.6085 92.1213 68.6085 95.276C68.6085 98.804 67.7872 101.529 66.1445 103.452C64.5019 105.375 62.1779 106.336 59.1725 106.336ZM64.7165 94.464C64.5485 90.5813 63.1672 88.64 60.5725 88.64C59.5085 88.64 58.6779 88.9573 58.0805 89.592C57.5019 90.208 57.2125 91.0947 57.2125 92.252C57.2125 93.4093 57.5019 94.296 58.0805 94.912C58.6779 95.528 59.5365 95.836 60.6565 95.836C62.1499 95.836 63.5032 95.3787 64.7165 94.464ZM75.1995 106L82.9275 89.144H72.5395V86.008H87.0155V88.192L79.4275 106H75.1995ZM92.0664 106L106.346 86.008H110.238L95.9584 106H92.0664ZM108.25 106.224C106.738 106.224 105.544 105.72 104.666 104.712C103.789 103.685 103.35 102.295 103.35 100.54C103.35 98.7667 103.789 97.376 104.666 96.368C105.544 95.36 106.738 94.856 108.25 94.856C109.762 94.856 110.957 95.36 111.834 96.368C112.712 97.376 113.15 98.7667 113.15 100.54C113.15 102.295 112.712 103.685 111.834 104.712C110.957 105.72 109.762 106.224 108.25 106.224ZM108.25 103.788C108.81 103.788 109.249 103.517 109.566 102.976C109.884 102.416 110.042 101.604 110.042 100.54C110.042 99.476 109.884 98.6733 109.566 98.132C109.249 97.572 108.81 97.292 108.25 97.292C107.69 97.292 107.252 97.572 106.934 98.132C106.617 98.6733 106.458 99.476 106.458 100.54C106.458 101.604 106.617 102.416 106.934 102.976C107.252 103.517 107.69 103.788 108.25 103.788ZM94.1664 97.012C92.6544 97.012 91.4598 96.508 90.5824 95.5C89.7051 94.4733 89.2664 93.0827 89.2664 91.328C89.2664 89.5547 89.7051 88.164 90.5824 87.156C91.4598 86.148 92.6544 85.644 94.1664 85.644C95.6784 85.644 96.8731 86.148 97.7504 87.156C98.6278 88.164 99.0664 89.5547 99.0664 91.328C99.0664 93.0827 98.6278 94.4733 97.7504 95.5C96.8731 96.508 95.6784 97.012 94.1664 97.012ZM94.1664 94.576C94.7264 94.576 95.1651 94.3053 95.4824 93.764C95.7998 93.204 95.9584 92.392 95.9584 91.328C95.9584 90.264 95.7998 89.4613 95.4824 88.92C95.1651 88.36 94.7264 88.08 94.1664 88.08C93.6064 88.08 93.1678 88.36 92.8504 88.92C92.5331 89.4613 92.3744 90.264 92.3744 91.328C92.3744 92.392 92.5331 93.204 92.8504 93.764C93.1678 94.3053 93.6064 94.576 94.1664 94.576Z" fill="#051766"/>
</g>
<defs>
<filter id="filter0_d_942_46102" x="1" y="0" width="166" height="167" filterUnits="userSpaceOnUse" color-interpolation-filters="sRGB">
<feFlood flood-opacity="0" result="BackgroundImageFix"/>
<feColorMatrix in="SourceAlpha" type="matrix" values="0 0 0 0 0 0 0 0 0 0 0 0 0 0 0 0 0 0 127 0" result="hardAlpha"/>
<feOffset dy="4"/>
<feGaussianBlur stdDeviation="1.5"/>
<feComposite in2="hardAlpha" operator="out"/>
<feColorMatrix type="matrix" values="0 0 0 0 0.133333 0 0 0 0 0.133333 0 0 0 0 0.133333 0 0 0 0.2 0"/>
<feBlend mode="normal" in2="BackgroundImageFix" result="effect1_dropShadow_942_46102"/>
<feBlend mode="normal" in="SourceGraphic" in2="effect1_dropShadow_942_46102" result="shape"/>
</filter>
<clipPath id="clip0_942_46102">
<rect width="165" height="165" fill="white"/>
</clipPath>
<clipPath id="clip1_942_46102">
<rect x="-16" width="197" height="165" rx="82.5" fill="white"/>
</clipPath>
</defs>
</svg>
