<svg width="96" height="96" viewBox="0 0 96 96" fill="none" xmlns="http://www.w3.org/2000/svg">
<g id="icons/print">
<path id="Union" fill-rule="evenodd" clip-rule="evenodd" d="M66.9557 18.8838H32.0923V26.8274H26.5503V13.3418H72.4977V18.4836C72.4977 20.8338 71.2559 23.1327 68.9159 25.134L66.9557 26.7966V18.8838ZM74.6323 29.2187C78.1217 29.2187 80.9543 32.0513 80.9543 35.5407V55.1635C80.9441 58.2732 79.7022 61.3316 77.3725 63.9897L75.4123 66.2168V35.5304C75.4123 35.0994 75.0634 34.7504 74.6323 34.7504H21.3777C20.9466 34.7504 20.5977 35.0994 20.5977 35.5304V60.4592C20.5977 60.6542 20.7619 60.8184 20.9569 60.8184H26.5502V48.3592H69.4495V82.6478H26.54V66.3707H20.9466C17.6933 66.3707 15.0454 63.7229 15.0454 60.4695V35.5407C15.0454 32.0513 17.878 29.2187 21.3674 29.2187H74.6323ZM63.9178 53.9217H32.0922V77.1263H63.9178V53.9217Z" fill="#051766"/>
</g>
</svg>
