<svg width="96" height="96" viewBox="0 0 96 96" fill="none" xmlns="http://www.w3.org/2000/svg">
<g id="icons/register" clip-path="url(#clip0_757_10066)">
<path id="Union" fill-rule="evenodd" clip-rule="evenodd" d="M61.8601 32.1266C62.6601 31.1766 63.0399 29.9666 62.9299 28.7366C62.8199 27.4966 62.24 26.3766 61.29 25.5766L49.99 16.0866C48.03 14.4366 45.0899 14.6966 43.4399 16.6566L13 52.9466L15.6201 68.5366L31.4202 68.4066L61.8601 32.1166V32.1266ZM20.02 63.2966L18.54 54.4666L37.6602 31.6766L38.6001 32.4666L38.61 32.4548C40.8588 34.3394 43.815 35.2964 47.1501 35.2265L49.9399 35.1565L41.95 28.4565L41.9401 28.4683L41.01 27.6866L47.0701 20.4566L57.51 29.2166L28.98 63.2366L20.03 63.3066L20.02 63.2966ZM82.0901 76.6666H16.21V81.8766H82.0901V76.6666Z" fill="#051766"/>
</g>
<defs>
<clipPath id="clip0_757_10066">
<rect width="96" height="96" fill="white"/>
</clipPath>
</defs>
</svg>
