<svg width="30" height="30" viewBox="0 0 30 30" fill="none" xmlns="http://www.w3.org/2000/svg">
<g id="icons/report" clip-path="url(#clip0_924_9345)">
<path id="Union" fill-rule="evenodd" clip-rule="evenodd" d="M15.8473 4.49316H14.1528V8.03452H15.8473V4.49316ZM23.5425 23.812H6.45764V25.5065H23.5425V23.812ZM7.81758 6.88612L9.23598 5.95901L11.1735 8.92331L9.75515 9.85042L7.81758 6.88612ZM20.7645 5.95659L18.827 8.92088L20.2453 9.848L22.1829 6.8837L20.7645 5.95659ZM9.33579 17.5353V19.6042C9.33579 20.5594 8.95817 21.4987 8.24101 22.3142L7.64127 22.9933V17.5353C7.64127 13.0261 10.8748 9.49423 15.0032 9.49423C19.1316 9.49423 22.3652 13.0261 22.3652 17.5353V22.9933L21.7654 22.3142C21.0515 21.4987 20.6707 20.5594 20.6707 19.6042V17.5353C20.6707 13.9209 18.2336 11.1919 15.0032 11.1919C11.7729 11.1919 9.33579 13.9178 9.33579 17.5353Z" fill="#DA291C"/>
</g>
<defs>
<clipPath id="clip0_924_9345">
<rect width="30" height="30" fill="white"/>
</clipPath>
</defs>
</svg>
